<svg class="dn" height="0" version="1.1" width="0" xmlns="http://www.w3.org/2000/svg">
  <defs>
    <g id="bnd-logo">
      <path d="M14.8018 2H2.8541C1.92768 2 1.33445 2.93596 1.76795 3.71405L2.96368 5.86466H0.796482C0.659276 5.8647 0.524407 5.89841 0.404937 5.96253C0.285467 6.02665 0.185446 6.119 0.114562 6.23064C0.0436777 6.34228 0.0043325 6.46943 0.000337815 6.59976C-0.00365688 6.73009 0.0278339 6.8592 0.0917605 6.97457L3.93578 13.8888C4.00355 14.0104 4.10491 14.1121 4.22896 14.1831C4.35301 14.254 4.49507 14.2915 4.63987 14.2915C4.78466 14.2915 4.92672 14.254 5.05077 14.1831C5.17483 14.1121 5.27618 14.0104 5.34395 13.8888L6.38793 12.0211L7.69771 14.3775C8.15868 15.2063 9.40744 15.2078 9.87001 14.38L15.8585 3.67064C16.2818 2.91319 15.7043 2 14.8018 2ZM9.43491 6.57566L6.85274 11.1944C6.80761 11.2753 6.74016 11.3429 6.65762 11.3901C6.57508 11.4373 6.48058 11.4622 6.38426 11.4622C6.28794 11.4622 6.19344 11.4373 6.1109 11.3901C6.02836 11.3429 5.96091 11.2753 5.91578 11.1944L3.35853 6.59509C3.31587 6.51831 3.29482 6.43236 3.2974 6.34558C3.29998 6.25879 3.3261 6.17411 3.37325 6.09974C3.4204 6.02538 3.48696 5.96385 3.56649 5.92112C3.64601 5.87839 3.73581 5.85591 3.82717 5.85585H8.97937C9.06831 5.85591 9.15572 5.87782 9.23312 5.91945C9.31052 5.96108 9.37529 6.02102 9.42113 6.09345C9.46697 6.16588 9.49232 6.24834 9.49474 6.33283C9.49716 6.41732 9.47655 6.50097 9.43491 6.57566Z" fill="currentColor" />
      <path d="M14.8018 2H2.8541C1.92768 2 1.33445 2.93596 1.76795 3.71405L2.96368 5.86466H0.796482C0.659276 5.8647 0.524407 5.89841 0.404937 5.96253C0.285467 6.02665 0.185446 6.119 0.114562 6.23064C0.0436777 6.34228 0.0043325 6.46943 0.000337815 6.59976C-0.00365688 6.73009 0.0278339 6.8592 0.0917605 6.97457L3.93578 13.8888C4.00355 14.0104 4.10491 14.1121 4.22896 14.1831C4.35301 14.254 4.49507 14.2915 4.63987 14.2915C4.78466 14.2915 4.92672 14.254 5.05077 14.1831C5.17483 14.1121 5.27618 14.0104 5.34395 13.8888L6.38793 12.0211L7.69771 14.3775C8.15868 15.2063 9.40744 15.2078 9.87001 14.38L15.8585 3.67064C16.2818 2.91319 15.7043 2 14.8018 2ZM9.43491 6.57566L6.85274 11.1944C6.80761 11.2753 6.74016 11.3429 6.65762 11.3901C6.57508 11.4373 6.48058 11.4622 6.38426 11.4622C6.28794 11.4622 6.19344 11.4373 6.1109 11.3901C6.02836 11.3429 5.96091 11.2753 5.91578 11.1944L3.35853 6.59509C3.31587 6.51831 3.29482 6.43236 3.2974 6.34558C3.29998 6.25879 3.3261 6.17411 3.37325 6.09974C3.4204 6.02538 3.48696 5.96385 3.56649 5.92112C3.64601 5.87839 3.73581 5.85591 3.82717 5.85585H8.97937C9.06831 5.85591 9.15572 5.87782 9.23312 5.91945C9.31052 5.96108 9.37529 6.02102 9.42113 6.09345C9.46697 6.16588 9.49232 6.24834 9.49474 6.33283C9.49716 6.41732 9.47655 6.50097 9.43491 6.57566Z" fill="currentColor" />
    </g>
    <g id="hpa-arrow-from-bottom">
      <path d="M7.00001 3.4V12H9.00001V3.4L13 7.4L14.4 6L8.70001 0.3C8.30001 -0.1 7.70001 -0.1 7.30001 0.3L1.60001 6L3.00001 7.4L7.00001 3.4Z" fill="currentColor" />
      <path d="M15 14H1V16H15V14Z" fill="currentColor" />
    </g>
    <g id="hpa-arrow-to-bottom">
      <path d="M8.00001 12C8.30001 12 8.50001 11.9 8.70001 11.7L14.4 6L13 4.6L9.00001 8.6V0H7.00001V8.6L3.00001 4.6L1.60001 6L7.30001 11.7C7.50001 11.9 7.70001 12 8.00001 12Z" fill="currentColor" />
      <path d="M15 14H1V16H15V14Z" fill="currentColor" />
    </g>
    <g id="hpa-arrow-back">
      <path d="M5.5 15.5002C5.75781 15.5002 5.92969 15.4169 6.10156 15.2502L11 10.5002L9.79687 9.33356L6.35938 12.6669L6.35938 0H4.64063L4.64062 12.6669L1.20312 9.33356L0 10.5002L4.89844 15.2502C5.07031 15.4169 5.24219 15.5002 5.5 15.5002Z" transform="translate(16.0002) rotate(90)" fill="currentColor" />
    </g>
    <g id="hpa-calendar">
      <path d="M5.66667 7.2H4.11111V8.8H5.66667V7.2ZM8.77778 7.2H7.22222V8.8H8.77778V7.2ZM11.8889 7.2H10.3333V8.8H11.8889V7.2ZM13.4444 1.6H12.6667V0H11.1111V1.6H4.88889V0H3.33333V1.6H2.55556C1.69222 1.6 1.00778 2.32 1.00778 3.2L1 14.4C1 15.28 1.69222 16 2.55556 16H13.4444C14.3 16 15 15.28 15 14.4V3.2C15 2.32 14.3 1.6 13.4444 1.6ZM13.4444 14.4H2.55556V5.6H13.4444V14.4Z" fill="currentColor" />
    </g>
    <g id="hpa-cart">
      <path d="M15.9333 2.32726C15.8667 2.25454 15.8 2.18179 15.6667 2.18179H3L2.66666 0.290899C2.66666 0.145432 2.46666 5.99081e-09 2.33331 5.99081e-09H0.333313C0.133344 -3.4085e-05 0 0.145432 0 0.363615C0 0.581797 0.133344 0.727263 0.333344 0.727263H2.06669L3.66669 9.60003C3.86669 10.7637 4.86669 11.6364 5.93334 11.6364H13.6C13.8 11.6364 13.9333 11.4909 13.9333 11.2727C13.9333 11.0546 13.8 10.9091 13.6 10.9091H6C5.46666 10.9091 4.93334 10.6182 4.66666 10.1091L14.4 8.65455C14.5333 8.65455 14.6667 8.50908 14.6667 8.36365L16 2.54544C16 2.54544 16 2.39997 15.9333 2.32726ZM14.0667 8L4.33331 9.38181L3.13331 2.83634H15.2L14.0667 8Z" fill="white" />
      <path d="M5.66666 12.3636C4.73334 12.3636 4 13.1637 4 14.1818C4 15.2 4.73334 16 5.66666 16C6.6 16 7.33331 15.2 7.33331 14.1818C7.33334 13.1637 6.6 12.3636 5.66666 12.3636ZM5.66666 15.2727C5.13331 15.2727 4.66666 14.7636 4.66666 14.1818C4.66666 13.6 5.13331 13.0909 5.66666 13.0909C6.2 13.0909 6.66666 13.6 6.66666 14.1818C6.66666 14.7636 6.2 15.2727 5.66666 15.2727Z" fill="white" />
      <path d="M12.3333 12.3636C11.4 12.3636 10.6667 13.1637 10.6667 14.1818C10.6667 15.2 11.4 16 12.3333 16C13.2667 16 14 15.2 14 14.1818C14 13.1637 13.2667 12.3636 12.3333 12.3636ZM12.3333 15.2727C11.8 15.2727 11.3333 14.7636 11.3333 14.1818C11.3333 13.6 11.8 13.0909 12.3333 13.0909C12.8667 13.0909 13.3333 13.6 13.3333 14.1818C13.3333 14.7636 12.8667 15.2727 12.3333 15.2727Z" fill="white" />
    </g>
    <g id="hpa-delete">
      <path d="M7 7H5V13H7V7Z" fill="currentColor" />
      <path d="M11 7H9V13H11V7Z" fill="currentColor" />
      <path d="M12 1C12 0.4 11.6 0 11 0H5C4.4 0 4 0.4 4 1V3H0V5H1V15C1 15.6 1.4 16 2 16H14C14.6 16 15 15.6 15 15V5H16V3H12V1ZM6 2H10V3H6V2ZM13 5V14H3V5H13Z" fill="currentColor" />
    </g>
    <g id="mpa-play">
      <path d="M3.5241 0.937906C2.85783 0.527894 2 1.00724 2 1.78956V14.2104C2 14.9928 2.85783 15.4721 3.5241 15.0621L13.6161 8.85166C14.2506 8.46117 14.2506 7.53883 13.6161 7.14834L3.5241 0.937906Z" fill="currentColor" />
    </g>
    <g id="mpa-pause">
      <rect width="6" height="16" fill="currentColor" />
      <rect x="10" width="6" height="16" fill="currentColor" />
    </g>
    <g id="sti-volume-on">
      <path d="M0 5.2634V10.7366H3.55556L8 15.2976V0.702394L3.55556 5.2634H0ZM12 8C12 6.3854 11.0933 4.99886 9.77778 4.32383V11.667C11.0933 11.0011 12 9.6146 12 8ZM9.77778 0V1.87913C12.3467 2.66363 14.2222 5.10832 14.2222 8C14.2222 10.8917 12.3467 13.3364 9.77778 14.1209V16C13.3422 15.1699 16 11.9042 16 8C16 4.09578 13.3422 0.830103 9.77778 0V0Z" fill="currentColor" />
    </g>
    <g id='sti-volume-off'>
      <path d="M12 8C12 6.42667 11.0933 5.07556 9.77778 4.41778V6.38222L11.9556 8.56C11.9822 8.38222 12 8.19556 12 8V8ZM14.2222 8C14.2222 8.83556 14.0444 9.61778 13.7422 10.3467L15.0844 11.6889C15.6711 10.5867 16 9.33333 16 8C16 4.19556 13.3422 1.01333 9.77778 0.204444V2.03556C12.3467 2.8 14.2222 5.18222 14.2222 8ZM1.12889 0L0 1.12889L4.20444 5.33333H0V10.6667H3.55556L8 15.1111V9.12889L11.7778 12.9067C11.1822 13.3689 10.5156 13.7333 9.77778 13.9556V15.7867C11.0044 15.5111 12.1156 14.9422 13.0578 14.1778L14.8711 16L16 14.8711L8 6.87111L1.12889 0ZM8 0.888889L6.14222 2.74667L8 4.60444V0.888889Z" fill="currentColor" />
    </g>
    <g id="hpa-profile">
      <path d="M7.99 8C10.1964 8 11.985 6.20914 11.985 4C11.985 1.79086 10.1964 0 7.99 0C5.78362 0 3.995 1.79086 3.995 4C3.995 6.20914 5.78362 8 7.99 8Z" fill="currentColor" />
      <path d="M14.8215 11.38C15.1694 11.5401 15.4641 11.7969 15.6704 12.12C15.8791 12.442 15.9933 12.8162 16 13.2V15.49V16H15.4906H0.509363H0V15.49V13.2C0.000731876 12.8181 0.107964 12.4441 0.309613 12.12C0.515896 11.7969 0.810577 11.5401 1.15855 11.38C3.31243 10.4409 5.64096 9.97049 7.99001 9.99999C10.3391 9.97049 12.6676 10.4409 14.8215 11.38Z" fill="currentColor" />
    </g>
    <g id="hpa-save">
      <path d="M11.7 0.3C11.5 0.1 11.3 0 11 0H10V3C10 3.6 9.6 4 9 4H4C3.4 4 3 3.6 3 3V0H1C0.4 0 0 0.4 0 1V15C0 15.6 0.4 16 1 16H15C15.6 16 16 15.6 16 15V5C16 4.7 15.9 4.5 15.7 4.3L11.7 0.3ZM13 14H3V11C3 10.4 3.4 10 4 10H12C12.6 10 13 10.4 13 11V14Z" fill="currentColor" />
      <path d="M9 0H7V3H9V0Z" fill="currentColor" />
    </g>
    <g id="hpa-search">
      <path d="M6.48911 0.0161158C5.12249 0.134909 3.86219 0.62571 2.73637 1.47289C2.41426 1.71673 1.72313 2.4076 1.4792 2.72959C0.209518 4.41145 -0.256449 6.41217 0.143844 8.43477C0.544137 10.448 1.86698 12.2424 3.68081 13.224C6.12948 14.5557 9.08476 14.3338 11.3051 12.6582L11.5553 12.4675L13.2597 14.165C14.1979 15.0997 15.0047 15.8874 15.0516 15.9187C15.1861 16 15.4238 16.0187 15.5864 15.9562C15.7521 15.8937 15.9273 15.7124 15.9804 15.5467C16.0273 15.4029 16.0023 15.1591 15.9304 15.0403C15.8991 14.9934 15.1111 14.1868 14.176 13.249L12.4779 11.5453L12.6686 11.2952C15.3331 7.76578 14.1447 2.72334 10.1793 0.735124C9.07851 0.1818 7.68374 -0.0901724 6.48911 0.0161158ZM7.8401 1.35722C10.6953 1.773 12.7906 4.18011 12.7906 7.04364C12.7906 10.2135 10.2231 12.7801 7.05203 12.7801C4.87856 12.7801 2.91775 11.5734 1.9264 9.6227C1.2165 8.22844 1.1133 6.5841 1.64807 5.10545C2.07964 3.90501 2.93339 2.84526 3.99666 2.18565C4.4939 1.87616 5.10998 1.61044 5.62911 1.47602C6.27646 1.31033 7.18963 1.26031 7.8401 1.35722Z" fill="white" />
    </g>
    <g id="hpa-hamburguer-menu">
      <path fill="currentColor" d="M15,7H1C0.4,7,0,7.4,0,8s0.4,1,1,1h14c0.6,0,1-0.4,1-1S15.6,7,15,7z" />
      <path fill="currentColor" d="M15,1H1C0.4,1,0,1.4,0,2s0.4,1,1,1h14c0.6,0,1-0.4,1-1S15.6,1,15,1z" />
      <path fill="currentColor" d="M15,13H1c-0.6,0-1,0.4-1,1s0.4,1,1,1h14c0.6,0,1-0.4,1-1S15.6,13,15,13z" />
    </g>
    <g id="hpa-location-marker">
      <path d="M19.9655 10.4828C19.9655 16.3448 10.4828 26 10.4828 26C10.4828 26 1 16.431 1 10.4828C1 4.44828 5.91379 1 10.4828 1C15.0517 1 19.9655 4.53448 19.9655 10.4828Z" stroke="currentColor" stroke-width="2" stroke-miterlimit="10" stroke-linecap="round" stroke-linejoin="round" />
      <path d="M10.4827 13.069C11.911 13.069 13.0689 11.9111 13.0689 10.4828C13.0689 9.05443 11.911 7.89655 10.4827 7.89655C9.05437 7.89655 7.89648 9.05443 7.89648 10.4828C7.89648 11.9111 9.05437 13.069 10.4827 13.069Z" stroke="currentColor" stroke-width="2" stroke-miterlimit="10" stroke-linecap="round" stroke-linejoin="round" />
    </g>
    <g id="hpa-telemarketing">
      <path d="M14 10V7C14 3.68629 11.3137 1 8 1V1C4.68629 1 2 3.68629 2 7V10" stroke="currentColor" stroke-width="1.5" />
      <path d="M14 10V10C14 12.2091 12.2091 14 10 14H8" stroke="currentColor" stroke-width="1.5" />
      <rect y="7" width="3" height="5" rx="1" fill="currentColor" />
      <rect x="11" y="12" width="4" height="5" rx="2" transform="rotate(90 11 12)" fill="currentColor" />
      <rect x="13" y="7" width="3" height="5" rx="1" fill="currentColor" />
    </g>
    <g id="mpa-globe">
      <path d="M8,0C3.6,0,0,3.6,0,8s3.6,8,8,8s8-3.6,8-8S12.4,0,8,0z M13.9,7H12c-0.1-1.5-0.4-2.9-0.8-4.1 C12.6,3.8,13.6,5.3,13.9,7z M8,14c-0.6,0-1.8-1.9-2-5H10C9.8,12.1,8.6,14,8,14z M6,7c0.2-3.1,1.3-5,2-5s1.8,1.9,2,5H6z M4.9,2.9 C4.4,4.1,4.1,5.5,4,7H2.1C2.4,5.3,3.4,3.8,4.9,2.9z M2.1,9H4c0.1,1.5,0.4,2.9,0.8,4.1C3.4,12.2,2.4,10.7,2.1,9z M11.1,13.1 c0.5-1.2,0.7-2.6,0.8-4.1h1.9C13.6,10.7,12.6,12.2,11.1,13.1z" fill="currentColor" />
    </g>
    <g id="mpa-filter-settings">
      <path d="M4 5V1" stroke="#4F4F4F" stroke-miterlimit="10" stroke-linecap="round" stroke-linejoin="round" />
      <path d="M4 16V14" stroke="#4F4F4F" stroke-miterlimit="10" stroke-linecap="round" stroke-linejoin="round" />
      <path d="M13 12V16" stroke="#4F4F4F" stroke-miterlimit="10" stroke-linecap="round" stroke-linejoin="round" />
      <path d="M13 1V3" stroke="#4F4F4F" stroke-miterlimit="10" stroke-linecap="round" stroke-linejoin="round" />
      <path d="M4 14C5.65685 14 7 12.6569 7 11C7 9.34315 5.65685 8 4 8C2.34315 8 1 9.34315 1 11C1 12.6569 2.34315 14 4 14Z" stroke="#4F4F4F" stroke-miterlimit="10" stroke-linecap="round" stroke-linejoin="round" />
      <path d="M13 9C14.6569 9 16 7.65685 16 6C16 4.34315 14.6569 3 13 3C11.3431 3 10 4.34315 10 6C10 7.65685 11.3431 9 13 9Z" stroke="#4F4F4F" stroke-miterlimit="10" stroke-linecap="round" stroke-linejoin="round" />
    </g>
    <g id="mpa-single-item">
      <path d="M10.2857 0H1.71429C0.685714 0 0 0.685714 0 1.71429V10.2857C0 11.3143 0.685714 12 1.71429 12H10.2857C11.3143 12 12 11.3143 12 10.2857V1.71429C12 0.685714 11.3143 0 10.2857 0Z" fill="currentColor" />
      <rect y="14" width="12" height="2" rx="1" fill="currentColor" />
    </g>
    <g id="mpa-gallery">
      <path d="M6 0H1C0.4 0 0 0.4 0 1V6C0 6.6 0.4 7 1 7H6C6.6 7 7 6.6 7 6V1C7 0.4 6.6 0 6 0Z" fill="currentColor" />
      <path d="M15 0H10C9.4 0 9 0.4 9 1V6C9 6.6 9.4 7 10 7H15C15.6 7 16 6.6 16 6V1C16 0.4 15.6 0 15 0Z" fill="currentColor" />
      <path d="M6 9H1C0.4 9 0 9.4 0 10V15C0 15.6 0.4 16 1 16H6C6.6 16 7 15.6 7 15V10C7 9.4 6.6 9 6 9Z" fill="currentColor" />
      <path d="M15 9H10C9.4 9 9 9.4 9 10V15C9 15.6 9.4 16 10 16H15C15.6 16 16 15.6 16 15V10C16 9.4 15.6 9 15 9Z" fill="currentColor" />
    </g>
    <g id="mpa-list-items">
      <path d="M6 0H1C0.4 0 0 0.4 0 1V6C0 6.6 0.4 7 1 7H6C6.6 7 7 6.6 7 6V1C7 0.4 6.6 0 6 0Z" fill="currentColor" />
      <rect x="9" width="7" height="3" rx="1" fill="currentColor" />
      <rect x="9" y="4" width="4" height="3" rx="1" fill="currentColor" />
      <rect x="9" y="9" width="7" height="3" rx="1" fill="currentColor" />
      <rect x="9" y="13" width="4" height="3" rx="1" fill="currentColor" />
      <path d="M6 9H1C0.4 9 0 9.4 0 10V15C0 15.6 0.4 16 1 16H6C6.6 16 7 15.6 7 15V10C7 9.4 6.6 9 6 9Z" fill="currentColor" />
    </g>
    <g id="mpa-heart">
      <path d="M14.682 2.31811C14.2647 1.89959 13.7687 1.56769 13.2226 1.3415C12.6765 1.11531 12.0911 0.99929 11.5 1.00011C10.8245 0.995238 10.157 1.14681 9.54975 1.44295C8.94255 1.73909 8.41213 2.17178 8.00004 2.70711C7.58764 2.17212 7.05716 1.73969 6.45002 1.44358C5.84289 1.14747 5.17552 0.995697 4.50004 1.00011C3.61002 1.00011 2.73998 1.26402 1.99995 1.75849C1.25993 2.25295 0.683144 2.95576 0.342546 3.77803C0.00194874 4.60031 -0.0871663 5.50511 0.0864704 6.37803C0.260107 7.25095 0.688697 8.05278 1.31804 8.68211L8.00004 15.0001L14.682 8.68211C15.0999 8.26425 15.4314 7.76817 15.6575 7.2222C15.8837 6.67623 16.0001 6.09107 16.0001 5.50011C16.0001 4.90916 15.8837 4.32399 15.6575 3.77803C15.4314 3.23206 15.0999 2.73598 14.682 2.31811V2.31811ZM13.282 7.25111L8.00004 12.2471L2.71504 7.24711C2.37145 6.8954 2.1392 6.45018 2.04734 5.96715C1.95549 5.48412 2.00811 4.98473 2.19862 4.53145C2.38913 4.07817 2.70908 3.69113 3.11843 3.41876C3.52778 3.14638 4.00835 3.00076 4.50004 3.00011C5.93704 3.00011 6.81204 3.68111 8.00004 5.62511C9.18704 3.68111 10.062 3.00011 11.5 3.00011C11.9925 2.99999 12.4741 3.14534 12.8843 3.41791C13.2945 3.69048 13.615 4.07814 13.8057 4.53223C13.9964 4.98632 14.0487 5.48661 13.956 5.97031C13.8634 6.45402 13.63 6.89959 13.285 7.25111H13.282Z" fill="currentColor" />
    </g>
    <g id="mpa-clone--outline">
      <path d="M5.20004 5.2L5.20004 3C5.20004 1.89543 6.09547 0.999997 7.20004 0.999997H13C14.1046 0.999997 15 1.89543 15 3V8.80001C15 9.90457 14.1046 10.8 13 10.8H10.8" stroke="currentColor" stroke-width="2" stroke-miterlimit="10" stroke-linecap="square" />
      <path d="M1 7.19999L1 13C1 14.1046 1.89543 15 3 15H8.79997C9.90454 15 10.8 14.1046 10.8 13V7.19999C10.8 6.09542 9.90454 5.19999 8.79997 5.19999H3C1.89543 5.19999 1 6.09542 1 7.19999Z" stroke="currentColor" stroke-width="2" stroke-miterlimit="10" stroke-linecap="square" />
    </g>
    <g id="mpa-clone--filled">
      <path d="M6.07501 4.925L6.07501 2.175C6.07501 1.62271 6.52273 1.175 7.07501 1.175H13.825C14.3773 1.175 14.825 1.62271 14.825 2.175V8.925C14.825 9.47729 14.3773 9.925 13.825 9.925H11.075" fill="currentColor" />
      <path d="M6.07501 4.925L6.07501 2.175C6.07501 1.62271 6.52273 1.175 7.07501 1.175H13.825C14.3773 1.175 14.825 1.62271 14.825 2.175V8.925C14.825 9.47729 14.3773 9.925 13.825 9.925H11.075" stroke="currentColor" stroke-width="2" stroke-miterlimit="10" stroke-linecap="square" />
      <path d="M1 6.49999L1 13C1 14.1046 1.89543 15 3 15H9.49997C10.6045 15 11.5 14.1046 11.5 13V6.49999C11.5 5.39542 10.6045 4.49999 9.49997 4.49999H3C1.89543 4.49999 1 5.39542 1 6.49999Z" fill="currentColor" stroke="white" stroke-width="2" stroke-miterlimit="10" stroke-linecap="square" />
    </g>
    <g id="mpa-edit--outline">
      <path d="M11.7 0.3C11.3 -0.1 10.7 -0.1 10.3 0.3L0.3 10.3C0.1 10.5 0 10.7 0 11V15C0 15.6 0.4 16 1 16H5C5.3 16 5.5 15.9 5.7 15.7L15.7 5.7C16.1 5.3 16.1 4.7 15.7 4.3L11.7 0.3ZM4.6 14H2V11.4L8 5.4L10.6 8L4.6 14ZM12 6.6L9.4 4L11 2.4L13.6 5L12 6.6Z" fill="currentColor" />
    </g>
    <g id="mpa-bookmark--filled">
      <path d="M3.33333 0C2.05 0 1 0.9 1 2V16L8 13L15 16V2C15 0.9 13.95 0 12.6667 0H3.33333Z" fill="currentColor" />
    </g>
    <g id="mpa-bookmark--outline">
      <path d="M13 2V13.3L8 11.9L3 13.3V2H13ZM13 0H3C1.9 0 1 0.9 1 2V16L8 14L15 16V2C15 0.9 14.1 0 13 0Z" fill="currentColor" />
    </g>
    <g id="mpa-edit--filled">
      <path d="M8.1 3.5L0.3 11.3C0.1 11.5 0 11.7 0 12V15C0 15.6 0.4 16 1 16H4C4.3 16 4.5 15.9 4.7 15.7L12.5 7.9L8.1 3.5Z" fill="currentColor" />
      <path d="M15.7 3.3L12.7 0.3C12.3 -0.1 11.7 -0.1 11.3 0.3L9.5 2.1L13.9 6.5L15.7 4.7C16.1 4.3 16.1 3.7 15.7 3.3Z" fill="currentColor" />
    </g>
    <g id="mpa-external-link--line">
      <path d="M14.3505 0H2.80412V3.29897H10.3918L0 13.6907L2.30928 16L12.701 5.60825V13.1959H16V1.64948C16 0.659794 15.3402 0 14.3505 0Z" fill="currentColor" />
    </g>
    <g id="mpa-external-link--outline">
      <path d="M15 0H8V2H12.6L6.3 8.3L7.7 9.7L14 3.4V8H16V1C16 0.4 15.6 0 15 0Z" fill="currentColor" />
      <path d="M14 16H1C0.4 16 0 15.6 0 15V2C0 1.4 0.4 1 1 1H5V3H2V14H13V11H15V15C15 15.6 14.6 16 14 16Z" fill="currentColor" />
    </g>
    <g id="mpa-eyesight--outline--off">
      <path d="M14.5744 5.66925L13.1504 7.09325C13.4284 7.44025 13.6564 7.75725 13.8194 8.00025C13.0594 9.13025 10.9694 11.8203 8.25838 11.9852L6.44337 13.8003C6.93937 13.9243 7.45737 14.0002 8.00037 14.0002C12.7074 14.0002 15.7444 8.71625 15.8714 8.49225C16.0424 8.18825 16.0434 7.81625 15.8724 7.51225C15.8254 7.42725 15.3724 6.63125 14.5744 5.66925Z" fill="currentColor" />
      <path d="M0.293375 15.7072C0.488375 15.9022 0.744375 16.0002 1.00038 16.0002C1.25638 16.0002 1.51238 15.9022 1.70738 15.7072L15.7074 1.70725C16.0984 1.31625 16.0984 0.68425 15.7074 0.29325C15.3164 -0.09775 14.6844 -0.09775 14.2934 0.29325L11.5484 3.03825C10.5154 2.43125 9.33138 2.00025 8.00037 2.00025C3.24537 2.00025 0.251375 7.28925 0.126375 7.51425C-0.0426249 7.81725 -0.0416249 8.18625 0.128375 8.48925C0.198375 8.61425 1.17238 10.2913 2.82138 11.7653L0.292375 14.2942C-0.0976249 14.6842 -0.0976249 15.3162 0.293375 15.7072ZM2.18138 7.99925C2.95837 6.83525 5.14637 4.00025 8.00037 4.00025C8.74237 4.00025 9.43738 4.20125 10.0784 4.50825L8.51237 6.07425C8.34838 6.02925 8.17838 6.00025 8.00037 6.00025C6.89537 6.00025 6.00038 6.89525 6.00038 8.00025C6.00038 8.17825 6.02938 8.34825 6.07438 8.51225L4.24038 10.3462C3.28538 9.51025 2.55938 8.56225 2.18138 7.99925Z" fill="currentColor" />
    </g>
    <g id="mpa-eyesight--filled--off">
      <path d="M14.6 5.60001L6.39999 13.8C6.89999 13.9 7.49999 14 7.99999 14C11.6 14 14.4 10.9 15.6 9.10001C16.1 8.40001 16.1 7.50001 15.6 6.80001C15.4 6.50001 15 6.10001 14.6 5.60001Z" fill="currentColor" />
      <path d="M14.3 0.3L11.6 3C10.5 2.4 9.3 2 8 2C4.4 2 1.6 5.1 0.4 6.9C-0.1 7.6 -0.1 8.5 0.4 9.1C0.9 9.9 1.8 10.9 2.8 11.8L0.3 14.3C-0.1 14.7 -0.1 15.3 0.3 15.7C0.5 15.9 0.7 16 1 16C1.3 16 1.5 15.9 1.7 15.7L15.7 1.7C16.1 1.3 16.1 0.7 15.7 0.3C15.3 -0.1 14.7 -0.1 14.3 0.3ZM5.3 9.3C5.1 8.9 5 8.5 5 8C5 6.3 6.3 5 8 5C8.5 5 8.9 5.1 9.3 5.3L5.3 9.3Z" fill="currentColor" />
    </g>
    <g id="mpa-eyesight--outline--on">
      <path d="M8.00013 14C12.7071 14 15.7441 8.716 15.8711 8.492C16.0421 8.188 16.0431 7.816 15.8721 7.512C15.7461 7.287 12.7311 2 8.00013 2C3.24513 2 0.251127 7.289 0.126127 7.514C-0.0428725 7.817 -0.0418725 8.186 0.128127 8.489C0.254128 8.713 3.26913 14 8.00013 14ZM8.00013 4C10.8391 4 13.0361 6.835 13.8181 8C13.0341 9.166 10.8371 12 8.00013 12C5.15913 12 2.96213 9.162 2.18113 7.999C2.95813 6.835 5.14613 4 8.00013 4Z" fill="currentColor" />
      <path d="M8 11C9.65685 11 11 9.65685 11 8C11 6.34315 9.65685 5 8 5C6.34315 5 5 6.34315 5 8C5 9.65685 6.34315 11 8 11Z" fill="currentColor" />
    </g>
    <g id="mpa-eyesight--filled--on">
      <path d="M7.975 14C11.575 14 14.375 10.9 15.575 9.1C16.075 8.4 16.075 7.5 15.575 6.8C14.375 5.1 11.575 2 7.975 2C4.375 2 1.575 5.1 0.375 6.9C-0.125 7.6 -0.125 8.5 0.375 9.1C1.575 10.9 4.375 14 7.975 14ZM7.975 5C9.675 5 10.975 6.3 10.975 8C10.975 9.7 9.675 11 7.975 11C6.275 11 4.975 9.7 4.975 8C4.975 6.3 6.275 5 7.975 5Z" fill="currentColor" />
    </g>
    <g id="mpa-filter--outline">
      <path d="M15 3.16048C15 3.47872 14.8485 3.77795 14.5921 3.96637L9.96348 7.36697C9.70702 7.55539 9.55556 7.85462 9.55556 8.17285V13.0073C9.55556 13.4073 9.31716 13.7688 8.94947 13.9264L7.83836 14.4026C7.1785 14.6854 6.44444 14.2014 6.44444 13.4835V8.17285C6.44444 7.85462 6.29298 7.55539 6.03652 7.36697L1.40792 3.96637C1.15147 3.77795 1 3.47872 1 3.16048V2C1 1.44772 1.44772 1 2 1H14C14.5523 1 15 1.44772 15 2V3.16048Z" stroke="currentColor" stroke-width="2" stroke-miterlimit="10" stroke-linecap="square" />
    </g>
    <g id="mpa-filter--filled">
      <path d="M15 0H1C0.4 0 0 0.4 0 1V3C0 3.3 0.1 3.6 0.4 3.8L6 8.5V15C6 15.4 6.2 15.8 6.6 15.9C6.7 16 6.9 16 7 16C7.3 16 7.5 15.9 7.7 15.7L9.7 13.7C9.9 13.5 10 13.3 10 13V8.5L15.6 3.8C15.9 3.6 16 3.3 16 3V1C16 0.4 15.6 0 15 0Z" fill="currentColor" />
    </g>
    <g id="mpa-minus--line">
      <path d="M0 7.85715V8.14286C0 8.69515 0.447715 9.14286 1 9.14286H15C15.5523 9.14286 16 8.69515 16 8.14286V7.85715C16 7.30486 15.5523 6.85715 15 6.85715H1C0.447715 6.85715 0 7.30486 0 7.85715Z" fill="currentColor" />
    </g>
    <g id="mpa-minus--outline">
      <circle cx="8" cy="8" r="7" stroke="currentColor" stroke-width="2" />
      <path d="M4 8.5V7.5C4 7.22386 4.22386 7 4.5 7H11.5C11.7761 7 12 7.22386 12 7.5V8.5C12 8.77614 11.7761 9 11.5 9H4.5C4.22386 9 4 8.77614 4 8.5Z" fill="currentColor" />
    </g>
    <g id="mpa-minus--filled">
      <path fill-rule="evenodd" clip-rule="evenodd" d="M8 16C12.4183 16 16 12.4183 16 8C16 3.58172 12.4183 0 8 0C3.58172 0 0 3.58172 0 8C0 12.4183 3.58172 16 8 16ZM4.5 7C4.22386 7 4 7.22386 4 7.5V8.5C4 8.77614 4.22386 9 4.5 9H11.5C11.7761 9 12 8.77614 12 8.5V7.5C12 7.22386 11.7761 7 11.5 7L4.5 7Z" fill="currentColor" />
    </g>
    <g id="mpa-plus--line">
      <path d="M16 8.14286C16 8.69514 15.5523 9.14286 15 9.14286H9.14286V15C9.14286 15.5523 8.69514 16 8.14286 16H7.85714C7.30486 16 6.85714 15.5523 6.85714 15V9.14286H1C0.447715 9.14286 0 8.69514 0 8.14286V7.85714C0 7.30486 0.447715 6.85714 1 6.85714H6.85714V1C6.85714 0.447715 7.30486 0 7.85714 0H8.14286C8.69514 0 9.14286 0.447715 9.14286 1V6.85714H15C15.5523 6.85714 16 7.30486 16 7.85714V8.14286Z" fill="currentColor" />
    </g>
    <g id="mpa-plus--outline">
      <circle cx="8" cy="8" r="7" stroke="currentColor" stroke-width="2" />
      <path d="M4.5 7H7V4.5C7 4.22386 7.22386 4 7.5 4H8.5C8.77614 4 9 4.22386 9 4.5V7H11.5C11.7761 7 12 7.22386 12 7.5V8.5C12 8.77614 11.7761 9 11.5 9H9V11.5C9 11.7761 8.77614 12 8.5 12H7.5C7.22386 12 7 11.7761 7 11.5V9H4.5C4.22386 9 4 8.77614 4 8.5V7.5C4 7.22386 4.22386 7 4.5 7Z" fill="currentColor" />
    </g>
    <g id="mpa-plus--filled">
      <path fill-rule="evenodd" d="M8 16C12.4183 16 16 12.4183 16 8C16 3.58172 12.4183 0 8 0C3.58172 0 0 3.58172 0 8C0 12.4183 3.58172 16 8 16ZM7 7H4.5C4.22386 7 4 7.22386 4 7.5V8.5C4 8.77614 4.22386 9 4.5 9H7V11.5C7 11.7761 7.22386 12 7.5 12H8.5C8.77614 12 9 11.7761 9 11.5V9H11.5C11.7761 9 12 8.77614 12 8.5V7.5C12 7.22386 11.7761 7 11.5 7H9V4.5C9 4.22386 8.77614 4 8.5 4L7.5 4C7.22386 4 7 4.22386 7 4.5V7Z" fill="currentColor" />
    </g>
    <g id="mpa-remove">
      <path d="M19.586 0.428571C19.0141 -0.142857 18.1564 -0.142857 17.5845 0.428571L10.0074 8L2.43038 0.428571C1.85853 -0.142857 1.00074 -0.142857 0.42889 0.428571C-0.142964 1 -0.142964 1.85714 0.42889 2.42857L8.00595 10L0.42889 17.5714C-0.142964 18.1429 -0.142964 19 0.42889 19.5714C0.714817 19.8571 1.00074 20 1.42963 20C1.85853 20 2.14445 19.8571 2.43038 19.5714L10.0074 12L17.5845 19.5714C17.8704 19.8571 18.2993 20 18.5853 20C18.8712 20 19.3001 19.8571 19.586 19.5714C20.1578 19 20.1578 18.1429 19.586 17.5714L12.0089 10L19.586 2.42857C20.1578 1.85714 20.1578 1 19.586 0.428571Z" fill="currentColor" />
    </g>
    <g id="mpa-swap">
      <path fill-rule="evenodd" clip-rule="evenodd" d="M5.53598 18.7459C7.09743 19.7676 8.92251 20.3199 10.7845 20.3199C16.1971 20.3199 20.6002 15.7623 20.6002 10.1599C20.6002 4.55758 16.1971 0 10.7845 0C5.63795 0 1.40399 4.12068 1.00032 9.34205C0.9655 9.79246 1.33505 10.1599 1.7868 10.1599C2.23856 10.1599 2.60076 9.79265 2.64256 9.34284C3.04095 5.05624 6.54048 1.69332 10.7845 1.69332C15.2948 1.69332 18.9643 5.49145 18.9643 10.1599C18.9643 14.8284 15.2948 18.6266 10.7845 18.6266C9.22645 18.6266 7.70006 18.1624 6.39587 17.3047L7.71056 17.0612C8.16986 16.9761 8.4777 16.534 8.39813 16.0737C8.31856 15.6134 7.88171 15.3093 7.42241 15.3943L4.25458 15.9811L4.24312 15.9833L4.22789 15.9859C3.7832 16.0683 3.48516 16.4963 3.5622 16.942L4.14767 20.3287C4.2247 20.7743 4.64765 21.0688 5.09234 20.9865C5.53704 20.9041 5.83508 20.4761 5.75804 20.0304L5.53598 18.7459Z" fill="currentColor" />
    </g>
    <g id="mpa-arrows">
      <path d="M15.829 7.55346L13.829 5.33123C13.7707 5.26579 13.7 5.21249 13.6211 5.17438C13.5422 5.13627 13.4565 5.11411 13.369 5.10916C13.2814 5.1042 13.1938 5.11656 13.1111 5.14551C13.0283 5.17447 12.9521 5.21945 12.8868 5.2779C12.7567 5.39693 12.6783 5.5621 12.6683 5.73815C12.6584 5.9142 12.7176 6.08717 12.8335 6.22012L13.8735 7.37568H8.62012V2.12234L9.77568 3.16234C9.84101 3.22079 9.91722 3.26578 9.99996 3.29473C10.0827 3.32369 10.1703 3.33604 10.2578 3.33109C10.3454 3.32613 10.431 3.30397 10.51 3.26586C10.5889 3.22776 10.6596 3.17445 10.7179 3.10901C10.8337 2.97606 10.893 2.80309 10.883 2.62704C10.8731 2.45099 10.7947 2.28581 10.6646 2.16679L8.44234 0.166788C8.31925 0.0592572 8.16135 0 7.9979 0C7.83445 0 7.67655 0.0592572 7.55345 0.166788L5.33123 2.16679C5.19921 2.28466 5.11943 2.45015 5.10943 2.62685C5.09942 2.80355 5.16003 2.97699 5.2779 3.10901C5.39577 3.24103 5.56126 3.32082 5.73796 3.33082C5.91467 3.34082 6.0881 3.28022 6.22012 3.16234L7.37568 2.12234V7.37568H2.12234L3.16234 6.22012C3.27818 6.08717 3.33745 5.9142 3.32748 5.73815C3.31752 5.5621 3.23911 5.39693 3.10901 5.2779C3.04368 5.21945 2.96747 5.17447 2.88473 5.14551C2.80199 5.11656 2.71436 5.1042 2.62684 5.10916C2.53932 5.11411 2.45364 5.13627 2.3747 5.17438C2.29576 5.21249 2.22511 5.26579 2.16679 5.33123L0.166788 7.55346C0.0592572 7.67655 0 7.83445 0 7.9979C0 8.16135 0.0592572 8.31925 0.166788 8.44234L2.16679 10.6646C2.22511 10.73 2.29576 10.7833 2.3747 10.8214C2.45364 10.8595 2.53932 10.8817 2.62684 10.8866C2.71436 10.8916 2.80199 10.8792 2.88473 10.8503C2.96747 10.8213 3.04368 10.7763 3.10901 10.7179C3.23911 10.5989 3.31752 10.4337 3.32748 10.2576C3.33745 10.0816 3.27818 9.90862 3.16234 9.77568L2.12234 8.62012H7.37568V13.8735L6.22012 12.8335C6.0881 12.7156 5.91467 12.655 5.73796 12.665C5.56126 12.675 5.39577 12.7548 5.2779 12.8868C5.16003 13.0188 5.09942 13.1922 5.10943 13.3689C5.11943 13.5456 5.19921 13.7111 5.33123 13.829L7.55345 15.829C7.67568 15.9383 7.83391 15.9988 7.9979 15.9988C8.16188 15.9988 8.32012 15.9383 8.44234 15.829L10.6646 13.829C10.7299 13.7706 10.7832 13.7 10.8212 13.621C10.8593 13.5421 10.8814 13.4564 10.8864 13.3689C10.8913 13.2815 10.879 13.1938 10.8501 13.1111C10.8212 13.0284 10.7763 12.9522 10.7179 12.8868C10.6595 12.8214 10.5889 12.7682 10.5099 12.7301C10.431 12.6921 10.3453 12.6699 10.2578 12.665C10.1703 12.66 10.0827 12.6724 10 12.7013C9.91727 12.7302 9.84105 12.7751 9.77568 12.8335L8.62012 13.8735V8.62012H13.8735L12.8335 9.77568C12.7176 9.90862 12.6584 10.0816 12.6683 10.2576C12.6783 10.4337 12.7567 10.5989 12.8868 10.7179C12.9521 10.7763 13.0283 10.8213 13.1111 10.8503C13.1938 10.8792 13.2814 10.8916 13.369 10.8866C13.4565 10.8817 13.5422 10.8595 13.6211 10.8214C13.7 10.7833 13.7707 10.73 13.829 10.6646L15.829 8.44234C15.9365 8.31925 15.9958 8.16135 15.9958 7.9979C15.9958 7.83445 15.9365 7.67655 15.829 7.55346Z" fill="currentColor" />
    </g>
    <g id="mpa-expand">
      <path d="M9.0001 2H12.6001L8.6001 6L10.0001 7.4L14.0001 3.4V7H16.0001V0H9.0001V2Z" fill="currentColor"></path>
      <path d="M6 8.6001L2 12.6001V9.0001H0V16.0001H7V14.0001H3.4L7.4 10.0001L6 8.6001Z" fill="currentColor"></path>
    </g>
    <g id="mpa-bag">
      <path d="M14.0001 15.0002H2L3.20001 4.81819H12.8001L14.0001 15.0002Z" stroke="currentColor" stroke-width="1.5" stroke-miterlimit="10" stroke-linecap="square" />
      <path d="M6.12476 7.12512V3.72227C6.12476 2.22502 7.05289 1 8.18728 1C9.32167 1 10.2498 2.22502 10.2498 3.72227V7.12512" stroke="currentColor" stroke-width="1.5" stroke-miterlimit="10" stroke-linecap="square" />
    </g>
    <g id="mpa-bars">
      <path fill-rule="evenodd" d="M0 12.7778C0 13.2687 0.397969 13.6667 0.888889 13.6667H15.1111C15.602 13.6667 16 13.2687 16 12.7778C16 12.2869 15.602 11.8889 15.1111 11.8889H0.888889C0.397969 11.8889 0 12.2869 0 12.7778ZM0 8.33333C0 8.82425 0.397969 9.22222 0.888889 9.22222H15.1111C15.602 9.22222 16 8.82425 16 8.33333C16 7.84241 15.602 7.44444 15.1111 7.44444H0.888889C0.397969 7.44444 0 7.84241 0 8.33333ZM0.888889 3C0.397969 3 0 3.39797 0 3.88889C0 4.37981 0.397969 4.77778 0.888889 4.77778H15.1111C15.602 4.77778 16 4.37981 16 3.88889C16 3.39797 15.602 3 15.1111 3H0.888889Z" fill="currentColor" />
    </g>
    <g id="mpa-cog">
      <path d="M15.135 6.784C13.832 6.458 13.214 4.966 13.905 3.815C14.227 3.279 14.13 2.817 13.811 2.499L13.501 2.189C13.183 1.871 12.721 1.774 12.185 2.095C11.033 2.786 9.541 2.168 9.216 0.865C9.065 0.258 8.669 0 8.219 0H7.781C7.331 0 6.936 0.258 6.784 0.865C6.458 2.168 4.966 2.786 3.815 2.095C3.279 1.773 2.816 1.87 2.498 2.188L2.188 2.498C1.87 2.816 1.773 3.279 2.095 3.815C2.786 4.967 2.168 6.459 0.865 6.784C0.26 6.935 0 7.33 0 7.781V8.219C0 8.669 0.258 9.064 0.865 9.216C2.168 9.542 2.786 11.034 2.095 12.185C1.773 12.721 1.87 13.183 2.189 13.501L2.499 13.811C2.818 14.13 3.281 14.226 3.815 13.905C4.967 13.214 6.459 13.832 6.784 15.135C6.935 15.742 7.331 16 7.781 16H8.219C8.669 16 9.064 15.742 9.216 15.135C9.542 13.832 11.034 13.214 12.185 13.905C12.72 14.226 13.182 14.13 13.501 13.811L13.811 13.501C14.129 13.183 14.226 12.721 13.905 12.185C13.214 11.033 13.832 9.541 15.135 9.216C15.742 9.065 16 8.669 16 8.219V7.781C16 7.33 15.74 6.935 15.135 6.784ZM8 11C6.343 11 5 9.657 5 8C5 6.343 6.343 5 8 5C9.657 5 11 6.343 11 8C11 9.657 9.657 11 8 11Z" fill="currentColor" />
    </g>
    <g id="mpa-columns">
      <path d="M1 4H15V15H1V4Z" stroke="currentColor" stroke-width="2" />
      <path d="M0 1C0 0.447715 0.447715 0 1 0H15C15.5523 0 16 0.447715 16 1V5H0V1Z" fill="currentColor" />
      <line x1="8.11108" y1="4.70586" x2="8.11108" y2="14.1176" stroke="currentColor" stroke-width="2" />
    </g>
    <g id="mpa-credit-card">
      <path d="M13.7142 3.49469C13.8938 3.49469 14.1326 3.56604 14.2596 3.69305C14.3866 3.82006 14.487 3.99232 14.487 4.17194L14.5051 11.2408C14.5051 11.4204 14.4338 11.5927 14.3068 11.7197C14.1798 11.8467 14.0075 11.918 13.8279 11.918L2.30637 11.9181C2.12676 11.9181 1.95449 11.8467 1.82749 11.7197C1.70048 11.5927 1.62912 11.4205 1.62912 11.2408L1.58197 4.172C1.58197 3.99238 1.65333 3.82012 1.78033 3.69311C1.90734 3.56611 2.0796 3.49475 2.25922 3.49475L13.7142 3.49469ZM14.3177 2L1.75127 2.00006C1.30223 2.00006 0.871578 2.17845 0.554056 2.49597C0.236534 2.81349 0 3.24414 0 3.69319L0.0472208 11.8334C0.0472208 12.2825 0.225603 12.7131 0.543125 13.0306C0.860646 13.3482 1.2913 13.5266 1.74034 13.5266L14.3068 13.5265C14.7558 13.5265 15.1865 13.3481 15.504 13.0306C15.8215 12.7131 15.9999 12.2824 15.9999 11.8334L16.0108 3.69312C16.0108 3.24408 15.8325 2.81343 15.5149 2.4959C15.1974 2.17838 14.7668 2 14.3177 2ZM13.4139 5.18788C13.4139 5.00826 13.3426 4.836 13.2156 4.70899C13.0886 4.58198 12.9163 4.51063 12.7367 4.51063H10.2682C10.0885 4.51063 9.91629 4.58198 9.78928 4.70899C9.66227 4.836 9.59092 5.00826 9.59092 5.18788C9.59092 5.36749 9.66227 5.53975 9.78928 5.66676C9.91629 5.79377 10.0885 5.86512 10.2682 5.86512H12.7367C12.9163 5.86512 13.0886 5.79377 13.2156 5.66676C13.3426 5.53975 13.4139 5.36749 13.4139 5.18788ZM3.91809 9.58997C3.91899 9.53426 3.90879 9.47893 3.88809 9.42721C3.86739 9.37548 3.83661 9.32839 3.79753 9.28868C3.75845 9.24896 3.71185 9.21743 3.66046 9.1959C3.60907 9.17438 3.55391 9.1633 3.4982 9.16331H2.84384C2.78376 9.15569 2.72275 9.16095 2.66486 9.17874C2.60697 9.19653 2.55353 9.22644 2.5081 9.26648C2.46266 9.30652 2.42627 9.35578 2.40134 9.41097C2.37642 9.46616 2.36352 9.52603 2.36352 9.58659C2.36352 9.64715 2.37642 9.70701 2.40134 9.76221C2.42627 9.8174 2.46266 9.86665 2.5081 9.90669C2.55353 9.94673 2.60697 9.97664 2.66486 9.99443C2.72275 10.0122 2.78376 10.0175 2.84384 10.0099H3.4982C3.55334 10.0099 3.60794 9.99901 3.65888 9.9779C3.70983 9.9568 3.75611 9.92587 3.79511 9.88688C3.8341 9.84789 3.86503 9.8016 3.88613 9.75066C3.90723 9.69972 3.91809 9.64511 3.91809 9.58997ZM10.5806 9.58896C10.5815 9.53325 10.5713 9.47792 10.5506 9.42619C10.5299 9.37446 10.4991 9.32737 10.46 9.28766C10.4209 9.24795 10.3743 9.21641 10.3229 9.19489C10.2715 9.17336 10.2164 9.16228 10.1607 9.16229L9.39853 9.1661C9.33845 9.15848 9.27744 9.16374 9.21955 9.18153C9.16166 9.19932 9.10822 9.22923 9.06279 9.26927C9.01735 9.30931 8.98096 9.35857 8.95604 9.41376C8.93111 9.46895 8.91822 9.52882 8.91822 9.58938C8.91822 9.64994 8.93111 9.7098 8.95604 9.765C8.98096 9.82019 9.01735 9.86944 9.06279 9.90948C9.10822 9.94952 9.16166 9.97943 9.21955 9.99722C9.27744 10.015 9.33845 10.0203 9.39853 10.0127L10.1607 10.0088C10.272 10.0088 10.3788 9.96461 10.4576 9.88587C10.5363 9.80712 10.5806 9.70032 10.5806 9.58896ZM8.26409 9.59276C8.2641 9.48077 8.22008 9.37326 8.14152 9.29343C8.06296 9.21361 7.95617 9.16787 7.84419 9.1661L7.12468 9.16568C7.0646 9.15806 7.00359 9.16332 6.9457 9.18111C6.88781 9.1989 6.83437 9.22881 6.78894 9.26885C6.7435 9.30889 6.70711 9.35814 6.68218 9.41334C6.65726 9.46853 6.64436 9.5284 6.64436 9.58896C6.64436 9.64952 6.65726 9.70938 6.68218 9.76458C6.70711 9.81977 6.7435 9.86902 6.78894 9.90906C6.83437 9.9491 6.88781 9.97901 6.9457 9.9968C7.00359 10.0146 7.0646 10.0199 7.12468 10.0122L7.84419 10.0127C7.95555 10.0127 8.06236 9.96842 8.1411 9.88967C8.21985 9.81093 8.26409 9.70413 8.26409 9.59276ZM6.0303 9.59234C6.0303 9.47918 5.98534 9.37066 5.90533 9.29064C5.82531 9.21063 5.71679 9.16568 5.60363 9.16568L4.87065 9.16331C4.76761 9.17637 4.67287 9.22657 4.60419 9.30449C4.53552 9.38242 4.49763 9.48272 4.49763 9.58659C4.49763 9.69045 4.53552 9.79075 4.60419 9.86868C4.67287 9.94661 4.76761 9.99681 4.87065 10.0099L5.60363 10.0122C5.71562 10.0122 5.82313 9.96823 5.90296 9.88967C5.98278 9.81112 6.02852 9.70432 6.0303 9.59234Z" fill="currentColor" />
    </g>
    <g id="mpa-elypsis">
      <circle cx="7.77778" cy="1.77778" r="1.77778" fill="currentColor" />
      <circle cx="7.77778" cy="8.00001" r="1.77778" fill="currentColor" />
      <circle cx="7.77778" cy="14.2222" r="1.77778" fill="currentColor" />
    </g>
    <g id="mpa-exchange">
      <path d="M15.8173 5.29688L12.9284 8.39911C12.866 8.4664 12.7904 8.52009 12.7062 8.5568C12.6221 8.59351 12.5313 8.61245 12.4395 8.61244C12.2716 8.6116 12.11 8.54821 11.9862 8.43466C11.8635 8.30854 11.7948 8.13952 11.7948 7.96355C11.7948 7.78758 11.8635 7.61856 11.9862 7.49244L13.8351 5.50133H0.990643V4.17688H13.7995L11.9506 2.17688C11.8779 2.1157 11.8191 2.03967 11.7781 1.95389C11.7372 1.86811 11.715 1.77456 11.7132 1.67952C11.7114 1.58448 11.7299 1.49015 11.7675 1.40285C11.8051 1.31556 11.861 1.23731 11.9313 1.17337C12.0016 1.10943 12.0848 1.06127 12.1753 1.03212C12.2658 1.00297 12.3614 0.993506 12.4559 1.00436C12.5503 1.01522 12.6413 1.04614 12.7228 1.09506C12.8043 1.14398 12.8744 1.20976 12.9284 1.28799L15.8173 4.39911C15.931 4.52092 15.9943 4.68135 15.9943 4.848C15.9943 5.01464 15.931 5.17508 15.8173 5.29688ZM4.03953 9.288C4.11228 9.22681 4.1711 9.15078 4.21206 9.065C4.25301 8.97922 4.27515 8.88567 4.27698 8.79063C4.27881 8.69559 4.2603 8.60126 4.22268 8.51397C4.18507 8.42667 4.12922 8.34843 4.05888 8.28448C3.98855 8.22054 3.90535 8.17238 3.81488 8.14323C3.7244 8.11408 3.62874 8.10462 3.5343 8.11547C3.43987 8.12633 3.34885 8.15725 3.26735 8.20617C3.18584 8.25509 3.11575 8.32087 3.06175 8.39911L0.172865 11.5013C0.0616785 11.6226 0 11.7812 0 11.9458C0 12.1103 0.0616785 12.2689 0.172865 12.3902L3.06175 15.5102C3.12417 15.5775 3.19981 15.6312 3.28393 15.6679C3.36806 15.7046 3.45886 15.7236 3.55064 15.7236C3.7186 15.7227 3.88022 15.6593 4.00398 15.5458C4.12669 15.4197 4.19535 15.2506 4.19535 15.0747C4.19535 14.8987 4.12669 14.7297 4.00398 14.6036L2.19064 12.6213H14.9995V11.288H2.19064L4.03953 9.288Z" fill="currentColor" />
    </g>
    <g id="mpa-export">
      <path d="M15 16H1C0.4 16 0 15.6 0 15V9H2V14H14V4H12V2H15C15.6 2 16 2.4 16 3V15C16 15.6 15.6 16 15 16Z" fill="currentColor" />
      <path d="M6 3C9.2 3 12 5.5 12 10C10.9 8.3 9.6 7 6 7V10L0 5L6 0V3Z" fill="currentColor" />
    </g>
    <g id="mpa-link">
      <path d="M11 0C9.7 0 8.4 0.5 7.5 1.5L6.3 2.6C5.9 3 5.9 3.6 6.3 4C6.7 4.4 7.3 4.4 7.7 4L8.9 2.8C10 1.7 12 1.7 13.1 2.8C13.7 3.4 14 4.2 14 5C14 5.8 13.7 6.6 13.1 7.1L12 8.3C11.6 8.7 11.6 9.3 12 9.7C12.2 9.9 12.5 10 12.7 10C12.9 10 13.2 9.9 13.4 9.7L14.6 8.5C15.5 7.6 16 6.3 16 5C16 3.7 15.5 2.4 14.5 1.5C13.6 0.5 12.3 0 11 0Z" fill="currentColor" />
      <path d="M8.3 12L7.1 13.2C6 14.3 4 14.3 2.9 13.2C2.3 12.6 2 11.8 2 11C2 10.2 2.3 9.4 2.9 8.9L4 7.7C4.4 7.3 4.4 6.7 4 6.3C3.6 5.9 3 5.9 2.6 6.3L1.5 7.5C0.5 8.4 0 9.7 0 11C0 12.3 0.5 13.6 1.5 14.5C2.4 15.5 3.7 16 5 16C6.3 16 7.6 15.5 8.5 14.5L9.7 13.3C10.1 12.9 10.1 12.3 9.7 11.9C9.3 11.5 8.7 11.6 8.3 12Z" fill="currentColor" />
      <path d="M9.39999 5.19999L5.19999 9.39999C4.79999 9.79999 4.79999 10.4 5.19999 10.8C5.39999 11 5.69999 11.1 5.89999 11.1C6.09999 11.1 6.39999 11 6.59999 10.8L10.8 6.59999C11.2 6.19999 11.2 5.59999 10.8 5.19999C10.4 4.79999 9.79999 4.79999 9.39999 5.19999Z" fill="currentColor" />
    </g>
    <g id="mpa-settings">
      <path d="M3.79999 4.73334V1" stroke="currentColor" stroke-miterlimit="10" stroke-linecap="round" stroke-linejoin="round" />
      <path d="M3.79999 15V13.1334" stroke="currentColor" stroke-miterlimit="10" stroke-linecap="round" stroke-linejoin="round" />
      <path d="M12.2 11.2667V15" stroke="currentColor" stroke-miterlimit="10" stroke-linecap="round" stroke-linejoin="round" />
      <path d="M12.2 1V2.86667" stroke="currentColor" stroke-miterlimit="10" stroke-linecap="round" stroke-linejoin="round" />
      <path d="M3.8 13.1333C5.3464 13.1333 6.60001 11.8797 6.60001 10.3333C6.60001 8.78695 5.3464 7.53334 3.8 7.53334C2.2536 7.53334 1 8.78695 1 10.3333C1 11.8797 2.2536 13.1333 3.8 13.1333Z" stroke="currentColor" stroke-miterlimit="10" stroke-linecap="round" stroke-linejoin="round" />
      <path d="M12.2 8.46668C13.7464 8.46668 15 7.21307 15 5.66667C15 4.12027 13.7464 2.86667 12.2 2.86667C10.6536 2.86667 9.40002 4.12027 9.40002 5.66667C9.40002 7.21307 10.6536 8.46668 12.2 8.46668Z" stroke="currentColor" stroke-miterlimit="10" stroke-linecap="round" stroke-linejoin="round" />
    </g>
    <g id="mpa-store">
      <path d="M12.6667 1H3.33333L1 5.2C1 6.48893 2.0444 7.53333 3.33333 7.53333C4.62227 7.53333 5.66667 6.48893 5.66667 5.2C5.66667 6.48893 6.71107 7.53333 8 7.53333C9.28893 7.53333 10.3333 6.48893 10.3333 5.2C10.3333 6.48893 11.3777 7.53333 12.6667 7.53333C13.9556 7.53333 15 6.48893 15 5.2L12.6667 1Z" stroke="currentColor" stroke-width="1.5" stroke-miterlimit="10" stroke-linecap="round" stroke-linejoin="round" />
      <path d="M13.25 9.75V15H2.75V9.75" stroke="currentColor" stroke-width="1.5" stroke-miterlimit="10" stroke-linecap="round" stroke-linejoin="round" />
      <path d="M6.59999 15V11.2667H9.39999V15" stroke="currentColor" stroke-width="1.5" stroke-miterlimit="10" stroke-linecap="round" stroke-linejoin="round" />
    </g>
    <g id="mpa-angle--down">
      <path d="M4 6L8.5 10.5L13 6" stroke="currentColor" stroke-miterlimit="10" stroke-linecap="round" stroke-linejoin="round" />
    </g>
    <g id="mpa-angle--up">
      <path d="M13 10L8.5 5.5L4 10" stroke="currentColor" stroke-miterlimit="10" stroke-linecap="round" stroke-linejoin="round" />
    </g>
    <g id="mpa-location-input">
      <path d="M9 0C4.05 0 0 4.05 0 9C0 13.95 4.05 18 9 18C13.95 18 18 13.95 18 9C18 4.05 13.95 0 9 0ZM10.125 10.125L7.875 14.625L5.625 5.625L14.625 7.875L10.125 10.125Z" fill="currentColor" />
    </g>
    <g id="inf-star">
      <path d="M7.369,11.251,11.923,14,10.714,8.82l4.023-3.485-5.3-.449L7.369,0,5.3,4.885,0,5.335,4.023,8.82,2.815,14Z" fill="currentColor" />
    </g>
    <g id="inf-help--outline">
      <path d="M8 0C3.6 0 0 3.6 0 8C0 12.4 3.6 16 8 16C12.4 16 16 12.4 16 8C16 3.6 12.4 0 8 0ZM8 14C4.7 14 2 11.3 2 8C2 4.7 4.7 2 8 2C11.3 2 14 4.7 14 8C14 11.3 11.3 14 8 14Z" fill="currentColor" />
      <path d="M8 13C8.55228 13 9 12.5523 9 12C9 11.4477 8.55228 11 8 11C7.44772 11 7 11.4477 7 12C7 12.5523 7.44772 13 8 13Z" fill="currentColor" />
      <path d="M7.09999 5.5C7.29999 5.2 7.59999 5 7.99999 5C8.59999 5 8.99999 5.4 8.99999 6C8.99999 6.3 8.89999 6.4 8.39999 6.7C7.79999 7.1 6.99999 7.7 6.99999 9V10H8.99999V9C8.99999 8.8 8.99999 8.7 9.49999 8.4C10.1 8 11 7.4 11 6C11 4.3 9.69999 3 7.99999 3C6.89999 3 5.89999 3.6 5.39999 4.5L4.89999 5.4L6.59999 6.4L7.09999 5.5Z" fill="currentColor" />
    </g>
    <g id="inf-help--filled">
      <path d="M8 0C3.6 0 0 3.6 0 8C0 12.4 3.6 16 8 16C12.4 16 16 12.4 16 8C16 3.6 12.4 0 8 0ZM8 13C7.4 13 7 12.6 7 12C7 11.4 7.4 11 8 11C8.6 11 9 11.4 9 12C9 12.6 8.6 13 8 13ZM9.5 8.4C9 8.7 9 8.8 9 9V10H7V9C7 7.7 7.8 7.1 8.4 6.7C8.9 6.4 9 6.3 9 6C9 5.4 8.6 5 8 5C7.6 5 7.3 5.2 7.1 5.5L6.6 6.4L4.9 5.4L5.4 4.5C5.9 3.6 6.9 3 8 3C9.7 3 11 4.3 11 6C11 7.4 10.1 8 9.5 8.4Z" fill="currentColor" />
    </g>
    <g id="inf-tooltip--outline">
      <path d="M8 16C12.4 16 16 12.4 16 8C16 3.6 12.4 0 8 0C3.6 0 0 3.6 0 8C0 12.4 3.6 16 8 16ZM8 2C11.3 2 14 4.7 14 8C14 11.3 11.3 14 8 14C4.7 14 2 11.3 2 8C2 4.7 4.7 2 8 2Z" fill="currentColor" />
      <path d="M7 12H9V7H7L7 12Z" fill="currentColor" />
      <path d="M8 4C7.44772 4 7 4.44772 7 5C7 5.55228 7.44772 6 8 6C8.55228 6 9 5.55228 9 5C9 4.44772 8.55228 4 8 4Z" fill="currentColor" />
    </g>
    <g id="inf-tooltip--filled">
      <path d="M8 0C3.6 0 0 3.6 0 8C0 12.4 3.6 16 8 16C12.4 16 16 12.4 16 8C16 3.6 12.4 0 8 0ZM9 12H7V7H9V12ZM8 6C7.4 6 7 5.6 7 5C7 4.4 7.4 4 8 4C8.6 4 9 4.4 9 5C9 5.6 8.6 6 8 6Z" fill="currentColor" />
    </g>
    <g id="inf-warning--outline">
      <path d="M8 0C3.6 0 0 3.6 0 8C0 12.4 3.6 16 8 16C12.4 16 16 12.4 16 8C16 3.6 12.4 0 8 0ZM8 14C4.7 14 2 11.3 2 8C2 4.7 4.7 2 8 2C11.3 2 14 4.7 14 8C14 11.3 11.3 14 8 14Z" fill="currentColor" />
      <path d="M9 4H7V9H9V4Z" fill="currentColor" />
      <path d="M8 12C8.55228 12 9 11.5523 9 11C9 10.4477 8.55228 10 8 10C7.44772 10 7 10.4477 7 11C7 11.5523 7.44772 12 8 12Z" fill="currentColor" />
    </g>
    <g id="inf-warning--filled">
      <path d="M8 0C3.6 0 0 3.6 0 8C0 12.4 3.6 16 8 16C12.4 16 16 12.4 16 8C16 3.6 12.4 0 8 0ZM8 12C7.4 12 7 11.6 7 11C7 10.4 7.4 10 8 10C8.6 10 9 10.4 9 11C9 11.6 8.6 12 8 12ZM9 9H7V4H9V9Z" fill="currentColor" />
    </g>
    <g id="nav-caret--down">
      <path d="M8.73746 13.1948C8.34108 13.6276 7.65892 13.6276 7.26254 13.1948L0 5.26471L2.07407 3L8 9.47059L13.9259 3L16 5.26471L8.73746 13.1948Z" fill="currentColor" />
    </g>
    <g id="nav-caret--left">
      <path d="M2.80524 8.73746C2.37243 8.34108 2.37243 7.65892 2.80525 7.26254L10.7353 0L13 2.07407L6.52941 8L13 13.9259L10.7353 16L2.80524 8.73746Z" fill="currentColor" />
    </g>
    <g id="nav-caret--right">
      <path d="M12.1948 7.26254C12.6276 7.65892 12.6276 8.34108 12.1948 8.73746L4.26471 16L2 13.9259L8.47059 8L2 2.07407L4.26471 0L12.1948 7.26254Z" fill="currentColor" />
    </g>
    <g id="nav-caret--up">
      <path d="M7.26254 2.80524C7.65892 2.37243 8.34108 2.37243 8.73746 2.80525L16 10.7353L13.9259 13L8 6.52941L2.07407 13L0 10.7353L7.26254 2.80524Z" fill="currentColor" />
    </g>
    <g id="nav-thin-caret--left">
      <path d="M11 1L4 8L11 15" stroke="currentColor" stroke-width="2" stroke-miterlimit="10" stroke-linecap="round" stroke-linejoin="round" />
    </g>
    <g id="nav-thin-caret--right">
      <path d="M5 15L12 8L5 1" stroke="currentColor" stroke-width="2" stroke-miterlimit="10" stroke-linecap="round" stroke-linejoin="round" />
    </g>
    <g id="nav-arrow--left">
      <path d="M0.499992 7.5C0.499992 7.75781 0.583325 7.92969 0.749992 8.10156L5.49999 13L6.66666 11.7969L3.33332 8.35938L16.0002 8.35938V6.64063L3.33332 6.64063L6.66666 3.20313L5.49999 2L0.749992 6.89844C0.583325 7.07031 0.499992 7.24219 0.499992 7.5Z" fill="currentColor" />
    </g>
    <g id="nav-arrow--right">
      <path d="M16 8.5C16 8.75781 15.914 8.92969 15.7419 9.10156L10.8388 14L9.6345 12.7969L13.0753 9.35938L0 9.35938L0 7.64063L13.0753 7.64063L9.6345 4.20313L10.8388 3L15.7419 7.89844C15.914 8.07031 16 8.24219 16 8.5Z" fill="currentColor" />
    </g>
    <g id="nav-home">
      <path d="M 15.475000000000001 6.686111111111111 L 14.222222222222221 5.661111111111111 V 2.888888888888889 c 0 -0.12222222222222223 -0.1 -0.2222222222222222 -0.2222222222222222 -0.2222222222222222 h -0.8888888888888888 c -0.12222222222222223 0 -0.2222222222222222 0.1 -0.2222222222222222 0.2222222222222222 v 1.6805555555555556 L 8.705555555555556 1.1416666666666666 c -0.4083333333333333 -0.3361111111111111 -1 -0.3361111111111111 -1.4083333333333334 0 L 0.5249999999999999 6.686111111111111 c -0.09444444444444444 0.07777777777777778 -0.10833333333333334 0.21666666666666667 -0.030555555555555558 0.3138888888888889 l 0.5638888888888889 0.6888888888888889 c 0.07777777777777778 0.09444444444444444 0.21666666666666667 0.10833333333333334 0.3138888888888889 0.030555555555555558 l 0.4083333333333333 -0.3333333333333333 V 12.88888888888889 c 0 0.24444444444444446 0.2 0.4444444444444444 0.4444444444444444 0.4444444444444444 h 4.666666666666667 c 0.12222222222222223 0 0.2222222222222222 -0.1 0.2222222222222222 -0.2222222222222222 V 9.555555555555555 h 1.7777777777777777 v 3.5555555555555554 c 0 0.12222222222222223 0.1 0.2222222222222222 0.2222222222222222 0.2222222222222222 h 4.666666666666667 c 0.24444444444444446 0 0.4444444444444444 -0.2 0.4444444444444444 -0.4444444444444444 V 7.383333333333334 l 0.4083333333333333 0.3333333333333333 c 0.09444444444444444 0.07777777777777778 0.2361111111111111 0.06388888888888888 0.3138888888888889 -0.030555555555555558 l 0.5638888888888889 -0.6888888888888889 c 0.07222222222222223 -0.09444444444444444 0.058333333333333334 -0.23333333333333334 -0.036111111111111115 -0.3111111111111111 Z M 12.88888888888889 12 h -2.6666666666666665 V 8.444444444444445 c 0 -0.12222222222222223 -0.1 -0.2222222222222222 -0.2222222222222222 -0.2222222222222222 H 6 c -0.12222222222222223 0 -0.2222222222222222 0.1 -0.2222222222222222 0.2222222222222222 v 3.5555555555555554 h -2.6666666666666665 V 6.291666666666667 l 4.747222222222223 -3.888888888888889 c 0.08055555555555555 -0.06666666666666667 0.2 -0.06666666666666667 0.28055555555555556 0 l 4.747222222222223 3.888888888888889 V 12 Z" fill="currentColor" />
    </g>
    <g id="nav-plus">
      <path d="M15,7H9V1c0-0.6-0.4-1-1-1S7,0.4,7,1v6H1C0.4,7,0,7.4,0,8s0.4,1,1,1h6v6c0,0.6,0.4,1,1,1s1-0.4,1-1V9h6 c0.6,0,1-0.4,1-1S15.6,7,15,7z" fill="currentColor" />
    </g>
    <g id="nav-minus">
      <path d="M15,7H1C0.4,7,0,7.4,0,8s0.4,1,1,1h14c0.6,0,1-0.4,1-1S15.6,7,15,7z" fill="currentColor" />
    </g>
    <g id="sti-loading">
      <circle cx="50" opacity="0.4" cy="50" fill="none" stroke="#000000" r="40" class="c-muted-1" stroke-width="14"></circle>
      <circle cx="50" cy="50" fill="none" stroke="#000000" r="40" stroke-dasharray="60 900" stroke-width="12" stroke-linecap="round">
        <animateTransform attributeName="transform" attributeType="XML" dur="0.7s" type="rotate" from="0 50 50" to="360 50 50" repeatCount="indefinite"></animateTransform>
      </circle>
    </g>
    <g id="sti-check--line">
      <path d="M5.6 10L3.10711 7.50711C2.71658 7.11658 2.08342 7.11658 1.69289 7.50711L0.707107 8.49289C0.316583 8.88342 0.316583 9.51658 0.707107 9.90711L4.89289 14.0929C5.28342 14.4834 5.91658 14.4834 6.30711 14.0929L15.2929 5.10711C15.6834 4.71658 15.6834 4.08342 15.2929 3.69289L14.3071 2.70711C13.9166 2.31658 13.2834 2.31658 12.8929 2.70711L5.6 10Z" fill="currentColor" />
    </g>
    <g id="sti-check--outline">
      <path d="M8 0C3.589 0 0 3.589 0 8C0 12.411 3.589 16 8 16C12.411 16 16 12.411 16 8C16 3.589 12.411 0 8 0ZM8 14C4.691 14 2 11.309 2 8C2 4.691 4.691 2 8 2C11.309 2 14 4.691 14 8C14 11.309 11.309 14 8 14Z" fill="currentColor" />
      <path d="M7.35355 11.0604C7.15829 11.2557 6.84171 11.2557 6.64645 11.0604L3.93955 8.35355C3.74429 8.15829 3.74429 7.84171 3.93955 7.64645L4.64645 6.93955C4.84171 6.74429 5.15829 6.74429 5.35355 6.93955L7 8.586L10.6464 4.93955C10.8417 4.74429 11.1583 4.74429 11.3536 4.93955L12.0604 5.64645C12.2557 5.84171 12.2557 6.15829 12.0604 6.35355L7.35355 11.0604Z" fill="currentColor" />
    </g>
    <g id="sti-check--filled">
      <path d="M8 0C3.6 0 0 3.6 0 8C0 12.4 3.6 16 8 16C12.4 16 16 12.4 16 8C16 3.6 12.4 0 8 0ZM7.35355 11.0464C7.15829 11.2417 6.84171 11.2417 6.64645 11.0464L3.95355 8.35355C3.75829 8.15829 3.75829 7.84171 3.95355 7.64645L4.64645 6.95355C4.84171 6.75829 5.15829 6.75829 5.35355 6.95355L7 8.6L10.6464 4.95355C10.8417 4.75829 11.1583 4.75829 11.3536 4.95355L12.0464 5.64645C12.2417 5.84171 12.2417 6.15829 12.0464 6.35355L7.35355 11.0464Z" fill="currentColor" />
    </g>
    <g id="sti-close--line">
      <path d="M11.9998 3.99995L4 11.9998" stroke="currentColor" stroke-miterlimit="10" stroke-linecap="round" stroke-linejoin="round" />
      <path d="M4.00027 4L12.0001 11.9998" stroke="currentColor" stroke-miterlimit="10" stroke-linecap="round" stroke-linejoin="round" />
    </g>
    <g id="sti-close--outline">
      <path d="M10.4536 4.85355C10.2583 4.65829 9.94171 4.65829 9.74645 4.85355L8 6.6L6.25355 4.85355C6.05829 4.65829 5.74171 4.65829 5.54645 4.85355L4.85355 5.54645C4.65829 5.74171 4.65829 6.05829 4.85355 6.25355L6.6 8L4.85355 9.74645C4.65829 9.94171 4.65829 10.2583 4.85355 10.4536L5.54645 11.1464C5.74171 11.3417 6.05829 11.3417 6.25355 11.1464L8 9.4L9.74645 11.1464C9.94171 11.3417 10.2583 11.3417 10.4536 11.1464L11.1464 10.4536C11.3417 10.2583 11.3417 9.94171 11.1464 9.74645L9.4 8L11.1464 6.25355C11.3417 6.05829 11.3417 5.74171 11.1464 5.54645L10.4536 4.85355Z" fill="currentColor" />
      <path d="M8 0C3.6 0 0 3.6 0 8C0 12.4 3.6 16 8 16C12.4 16 16 12.4 16 8C16 3.6 12.4 0 8 0ZM8 14C4.7 14 2 11.3 2 8C2 4.7 4.7 2 8 2C11.3 2 14 4.7 14 8C14 11.3 11.3 14 8 14Z" fill="currentColor" />
    </g>
    <g id="sti-close--filled">
      <path d="M8 0C3.6 0 0 3.6 0 8C0 12.4 3.6 16 8 16C12.4 16 16 12.4 16 8C16 3.6 12.4 0 8 0ZM11.1464 9.74645C11.3417 9.94171 11.3417 10.2583 11.1464 10.4536L10.4536 11.1464C10.2583 11.3417 9.94171 11.3417 9.74645 11.1464L8 9.4L6.25355 11.1464C6.05829 11.3417 5.74171 11.3417 5.54645 11.1464L4.85355 10.4536C4.65829 10.2583 4.65829 9.94171 4.85355 9.74645L6.6 8L4.85355 6.25355C4.65829 6.05829 4.65829 5.74171 4.85355 5.54645L5.54645 4.85355C5.74171 4.65829 6.05829 4.65829 6.25355 4.85355L8 6.6L9.74645 4.85355C9.94171 4.65829 10.2583 4.65829 10.4536 4.85355L11.1464 5.54645C11.3417 5.74171 11.3417 6.05829 11.1464 6.25355L9.4 8L11.1464 9.74645Z" fill="currentColor" />
    </g>
    <g id="sti-clock">
      <path d="M8 0C3.6 0 0 3.6 0 8C0 12.4 3.6 16 8 16C12.4 16 16 12.4 16 8C16 3.6 12.4 0 8 0ZM8 14C4.7 14 2 11.3 2 8C2 4.7 4.7 2 8 2C11.3 2 14 4.7 14 8C14 11.3 11.3 14 8 14Z" fill="currentColor" />
      <path d="M9 4.5C9 4.22386 8.77614 4 8.5 4H7.5C7.22386 4 7 4.22386 7 4.5V8C7 8.55228 7.44772 9 8 9H11.5C11.7761 9 12 8.77614 12 8.5V7.5C12 7.22386 11.7761 7 11.5 7H9V4.5Z" fill="currentColor" />
    </g>
    <g id="sti-equals">
      <rect y="16" width="44" height="6" rx="1" fill="currentColor" />
      <rect width="44" height="6" rx="1" fill="currentColor" />
    </g>
    <g id="sti-discount">
      <path d="M7.99991 1.57331L8.7199 2.40886L9.1199 2.87108C9.17697 2.93924 9.25391 2.98788 9.33996 3.01019C9.42602 3.0325 9.5169 3.02737 9.5999 2.99552L10.1777 2.79997L11.2088 2.43553L11.4132 3.55552L11.5288 4.15107C11.5463 4.23881 11.5895 4.31939 11.6527 4.38266C11.716 4.44593 11.7966 4.48906 11.8843 4.50662L12.4799 4.62217L13.5643 4.82662L13.1999 5.85772L13.0043 6.43549C12.9725 6.51849 12.9673 6.60937 12.9896 6.69542C13.012 6.78148 13.0606 6.85842 13.1288 6.91549L13.591 7.31549L14.4265 8.03548L13.591 8.75547L13.1288 9.15547C13.0606 9.21254 13.012 9.28948 12.9896 9.37553C12.9673 9.46159 12.9725 9.55247 13.0043 9.63547L13.1999 10.2132L13.5643 11.2443L12.4443 11.4132L11.8488 11.5288C11.761 11.5463 11.6804 11.5895 11.6172 11.6527C11.5539 11.716 11.5108 11.7966 11.4932 11.8843L11.3777 12.4799L11.1732 13.5643L10.1421 13.1999L9.56434 13.0043C9.48134 12.9725 9.39046 12.9673 9.30441 12.9897C9.21835 13.012 9.14142 13.0606 9.08434 13.1288L8.68435 13.591L7.99991 14.4265L7.27991 13.591L6.87992 13.1288C6.82285 13.0606 6.74591 13.012 6.65985 12.9897C6.5738 12.9673 6.48292 12.9725 6.39992 13.0043L5.82215 13.1999L4.79105 13.5643L4.5866 12.4443L4.51549 12.1643L4.44438 11.8843C4.42682 11.7966 4.38369 11.716 4.32042 11.6527C4.25715 11.5895 4.17657 11.5463 4.08883 11.5288L3.5555 11.4132L2.47107 11.2088L2.83551 10.1777L3.03106 9.59991C3.06291 9.51691 3.06804 9.42603 3.04573 9.33998C3.02342 9.25392 2.97478 9.17699 2.90662 9.11992L2.4444 8.71992L1.5733 7.99992L2.40885 7.27993L2.87106 6.87993C2.93923 6.82286 2.98786 6.74592 3.01017 6.65987C3.03248 6.57381 3.02736 6.48294 2.99551 6.39994L2.79995 5.82217L2.43551 4.79106L3.5555 4.58662L4.1155 4.4444C4.20324 4.42684 4.28382 4.38371 4.34709 4.32044C4.41036 4.25717 4.45349 4.17658 4.47105 4.08885L4.5866 3.55552L4.79105 2.47108L5.82215 2.83552L6.39992 3.03108C6.48292 3.06293 6.5738 3.06805 6.65985 3.04574C6.74591 3.02343 6.82285 2.9748 6.87992 2.90663L7.27991 2.44442L7.99991 1.57331ZM6.26659 1.57331L4.73771 1.03998C4.61843 0.994907 4.49084 0.976025 4.36361 0.984619C4.23637 0.993213 4.11248 1.02908 4.00034 1.08979C3.8882 1.1505 3.79043 1.23463 3.71368 1.33646C3.63692 1.43829 3.58298 1.55545 3.5555 1.67998L3.27106 3.27108L1.67996 3.55552C1.5544 3.57915 1.43541 3.62956 1.3311 3.70333C1.22679 3.77711 1.1396 3.8725 1.07549 3.98301C1.01138 4.09352 0.971841 4.21656 0.959575 4.34373C0.947309 4.4709 0.962602 4.59922 1.00441 4.71995L1.53774 6.24883L0.311085 7.32437C0.213504 7.40782 0.13516 7.51142 0.081442 7.62804C0.0277243 7.74466 -9.15527e-05 7.87153 -9.15527e-05 7.99992C-9.15527e-05 8.12832 0.0277243 8.25519 0.081442 8.37181C0.13516 8.48843 0.213504 8.59203 0.311085 8.67547L1.53774 9.77769L1.00441 11.3066C0.967083 11.4257 0.955261 11.5513 0.969716 11.6753C0.984171 11.7993 1.02458 11.9189 1.08831 12.0262C1.15204 12.1335 1.23766 12.2262 1.3396 12.2983C1.44154 12.3703 1.55751 12.4201 1.67996 12.4443L3.27106 12.7466L3.5555 14.3199C3.57913 14.4454 3.62955 14.5644 3.70332 14.6687C3.77709 14.773 3.87248 14.8602 3.98299 14.9243C4.09351 14.9885 4.21654 15.028 4.34371 15.0403C4.47089 15.0525 4.59921 15.0372 4.71994 14.9954L6.24881 14.4621L7.30658 15.6887C7.39003 15.7863 7.49363 15.8647 7.61024 15.9184C7.72686 15.9721 7.85373 15.9999 7.98213 15.9999C8.11053 15.9999 8.2374 15.9721 8.35402 15.9184C8.47064 15.8647 8.57423 15.7863 8.65768 15.6887L9.77767 14.4621L11.3065 14.9954C11.4257 15.0328 11.5513 15.0446 11.6753 15.0301C11.7993 15.0157 11.9188 14.9753 12.0262 14.9115C12.1335 14.8478 12.2262 14.7622 12.2983 14.6602C12.3703 14.5583 12.4201 14.4423 12.4443 14.3199L12.7465 12.7288L14.3199 12.4443C14.4454 12.4207 14.5644 12.3703 14.6687 12.2965C14.773 12.2227 14.8602 12.1273 14.9243 12.0168C14.9884 11.9063 15.028 11.7833 15.0402 11.6561C15.0525 11.5289 15.0372 11.4006 14.9954 11.2799L14.4621 9.77769L15.6887 8.71992C15.7863 8.63647 15.8647 8.53287 15.9184 8.41625C15.9721 8.29964 15.9999 8.17276 15.9999 8.04437C15.9999 7.91597 15.9721 7.7891 15.9184 7.67248C15.8647 7.55586 15.7863 7.45227 15.6887 7.36882L14.4621 6.26661L14.9954 4.73773C15.0403 4.61598 15.058 4.48587 15.0473 4.35655C15.0365 4.22723 14.9976 4.10183 14.9332 3.98916C14.8688 3.87649 14.7805 3.77928 14.6746 3.70437C14.5686 3.62945 14.4475 3.57865 14.3199 3.55552L12.7288 3.2533L12.4443 1.67998C12.4207 1.55442 12.3703 1.43543 12.2965 1.33112C12.2227 1.2268 12.1273 1.13962 12.0168 1.07551C11.9063 1.01139 11.7833 0.971856 11.6561 0.95959C11.5289 0.947324 11.4006 0.962618 11.2799 1.00443L9.77767 1.53776L8.67546 0.311101C8.59201 0.21352 8.48841 0.135175 8.3718 0.0814573C8.25518 0.0277395 8.12831 -7.62939e-05 7.99991 -7.62939e-05C7.87151 -7.62939e-05 7.74464 0.0277395 7.62802 0.0814573C7.5114 0.135175 7.40781 0.21352 7.32436 0.311101L6.26659 1.57331ZM9.57323 4.88884H10.3377C10.37 4.88836 10.4018 4.89669 10.4298 4.91295C10.4577 4.92921 10.4807 4.95278 10.4962 4.98112C10.5117 5.00945 10.5193 5.04149 10.5179 5.07378C10.5166 5.10608 10.5066 5.1374 10.4888 5.16439L6.79992 10.9066C6.75976 10.9692 6.70454 11.0207 6.63932 11.0564C6.5741 11.0921 6.50095 11.1109 6.42659 11.111H5.66215C5.62984 11.1115 5.598 11.1032 5.57007 11.0869C5.54214 11.0706 5.51916 11.0471 5.50362 11.0187C5.48808 10.9904 5.48056 10.9584 5.48187 10.9261C5.48318 10.8938 5.49326 10.8624 5.51104 10.8355L9.1999 5.09328C9.24006 5.03069 9.29527 4.97918 9.3605 4.94346C9.42572 4.90774 9.49887 4.88896 9.57323 4.88884ZM9.99989 8.88881C9.78014 8.88881 9.56532 8.95397 9.3826 9.07606C9.19988 9.19815 9.05747 9.37168 8.97337 9.57471C8.88927 9.77773 8.86727 10.0011 8.91014 10.2167C8.95301 10.4322 9.05883 10.6302 9.21422 10.7856C9.36962 10.941 9.56759 11.0468 9.78313 11.0897C9.99866 11.1325 10.2221 11.1105 10.4251 11.0264C10.6281 10.9423 10.8017 10.7999 10.9237 10.6172C11.0458 10.4345 11.111 10.2197 11.111 9.99991C11.111 9.70522 10.9939 9.42261 10.7856 9.21424C10.5772 9.00587 10.2946 8.88881 9.99989 8.88881ZM5.99993 4.88884C5.78017 4.88884 5.56535 4.954 5.38263 5.07609C5.19991 5.19818 5.0575 5.37171 4.9734 5.57474C4.88931 5.77777 4.8673 6.00117 4.91017 6.21671C4.95305 6.43224 5.05887 6.63022 5.21426 6.78561C5.36965 6.941 5.56763 7.04682 5.78316 7.08969C5.99869 7.13257 6.2221 7.11056 6.42513 7.02646C6.62815 6.94237 6.80168 6.79996 6.92377 6.61724C7.04586 6.43452 7.11103 6.2197 7.11103 5.99994C7.11103 5.70526 6.99397 5.42265 6.78559 5.21427C6.57722 5.0059 6.29461 4.88884 5.99993 4.88884Z" fill="currentColor" />
    </g>
    <g id="truck-icon">
      <path d="M10.3784 11.6757H5.17622C5.11887 11.6757 5.06388 11.6529 5.02333 11.6124C4.98278 11.5718 4.96 11.5168 4.96 11.4595C4.96 11.4021 4.98278 11.3471 5.02333 11.3066C5.06388 11.266 5.11887 11.2432 5.17622 11.2432H10.1622V3.02703H0.864867V11.2432H2.18379C2.24113 11.2432 2.29613 11.266 2.33667 11.3066C2.37722 11.3471 2.4 11.4021 2.4 11.4595C2.4 11.5168 2.37722 11.5718 2.33667 11.6124C2.29613 11.6529 2.24113 11.6757 2.18379 11.6757H0.864867C0.750178 11.6757 0.640187 11.6301 0.559091 11.549C0.477994 11.4679 0.432434 11.3579 0.432434 11.2432V3.02703C0.432434 2.91234 0.477994 2.80235 0.559091 2.72125C0.640187 2.64016 0.750178 2.5946 0.864867 2.5946H10.1622C10.2769 2.5946 10.3868 2.64016 10.4679 2.72125C10.549 2.80235 10.5946 2.91234 10.5946 3.02703V11.4595C10.5946 11.5168 10.5718 11.5718 10.5313 11.6124C10.4907 11.6529 10.4357 11.6757 10.3784 11.6757Z" fill="white" />
      <path d="M15.3514 11.6757H14.4692C14.4118 11.6757 14.3568 11.6529 14.3163 11.6123C14.2758 11.5718 14.253 11.5168 14.253 11.4595C14.253 11.4021 14.2758 11.3471 14.3163 11.3066C14.3568 11.266 14.4118 11.2432 14.4692 11.2432H15.1351V7.30033L13.2541 4.97298H10.5946V11.2432H11.4768C11.5341 11.2432 11.5891 11.266 11.6296 11.3066C11.6702 11.3471 11.693 11.4021 11.693 11.4595C11.693 11.5168 11.6702 11.5718 11.6296 11.6123C11.5891 11.6529 11.5341 11.6757 11.4768 11.6757H10.3784C10.321 11.6757 10.266 11.6529 10.2255 11.6123C10.1849 11.5718 10.1622 11.5168 10.1622 11.4595V4.75676C10.1622 4.69941 10.1849 4.64442 10.2255 4.60387C10.266 4.56332 10.321 4.54054 10.3784 4.54054H13.3578C13.3901 4.54055 13.422 4.54778 13.4511 4.56169C13.4802 4.57561 13.5058 4.59587 13.5261 4.62097L15.5196 7.088C15.5506 7.12645 15.5676 7.17437 15.5676 7.22379V11.4595C15.5676 11.5168 15.5448 11.5718 15.5042 11.6123C15.4637 11.6529 15.4087 11.6757 15.3514 11.6757Z" fill="white" />
      <path d="M14.1622 8.43244H11.3514C11.294 8.43244 11.239 8.40966 11.1985 8.36911C11.1579 8.32856 11.1351 8.27357 11.1351 8.21622V5.83784C11.1351 5.7805 11.1579 5.7255 11.1985 5.68496C11.239 5.64441 11.294 5.62163 11.3514 5.62163H12.7334C12.7657 5.62163 12.7975 5.62886 12.8266 5.64278C12.8557 5.6567 12.8814 5.67695 12.9016 5.70206L14.3304 7.47006C14.3615 7.50856 14.3784 7.55657 14.3784 7.60606V8.21622C14.3784 8.27357 14.3556 8.32856 14.3151 8.36911C14.2745 8.40966 14.2195 8.43244 14.1622 8.43244ZM11.5676 8.00001H13.946V7.68238L12.6303 6.05406H11.5676V8.00001Z" fill="white" />
      <path d="M3.68022 13.4054C3.33811 13.4054 3.00369 13.304 2.71923 13.1139C2.43478 12.9238 2.21308 12.6537 2.08216 12.3376C1.95124 12.0215 1.91698 11.6738 1.98373 11.3382C2.05047 11.0027 2.21521 10.6945 2.45712 10.4526C2.69902 10.2107 3.00723 10.0459 3.34277 9.97918C3.6783 9.91244 4.02609 9.9467 4.34216 10.0776C4.65823 10.2085 4.92837 10.4302 5.11844 10.7147C5.3085 10.9991 5.40995 11.3336 5.40995 11.6757C5.40943 12.1343 5.22703 12.5739 4.90275 12.8982C4.57848 13.2225 4.13881 13.4049 3.68022 13.4054V13.4054ZM3.68022 10.3784C3.42364 10.3784 3.17282 10.4545 2.95948 10.597C2.74614 10.7396 2.57986 10.9422 2.48167 11.1792C2.38348 11.4163 2.35779 11.6771 2.40785 11.9288C2.45791 12.1804 2.58146 12.4116 2.76289 12.593C2.94432 12.7744 3.17548 12.898 3.42713 12.948C3.67878 12.9981 3.93962 12.9724 4.17667 12.8742C4.41372 12.776 4.61633 12.6098 4.75888 12.3964C4.90143 12.1831 4.97752 11.9323 4.97752 11.6757C4.97712 11.3317 4.84031 11.002 4.59711 10.7588C4.3539 10.5156 4.02416 10.3788 3.68022 10.3784V10.3784Z" fill="white" />
      <path d="M12.973 13.4054C12.6309 13.4054 12.2964 13.304 12.012 13.1139C11.7275 12.9238 11.5058 12.6537 11.3749 12.3376C11.244 12.0215 11.2097 11.6738 11.2765 11.3382C11.3432 11.0027 11.508 10.6945 11.7499 10.4526C11.9918 10.2107 12.3 10.0459 12.6355 9.97918C12.9711 9.91244 13.3188 9.9467 13.6349 10.0776C13.951 10.2085 14.2211 10.4302 14.4112 10.7147C14.6013 10.9991 14.7027 11.3336 14.7027 11.6757C14.7022 12.1343 14.5198 12.5739 14.1955 12.8982C13.8712 13.2225 13.4316 13.4049 12.973 13.4054V13.4054ZM12.973 10.3784C12.7164 10.3784 12.4656 10.4545 12.2522 10.597C12.0389 10.7396 11.8726 10.9422 11.7744 11.1792C11.6762 11.4163 11.6505 11.6771 11.7006 11.9288C11.7507 12.1804 11.8742 12.4116 12.0556 12.593C12.2371 12.7744 12.4682 12.898 12.7199 12.948C12.9715 12.9981 13.2324 12.9724 13.4694 12.8742C13.7065 12.776 13.9091 12.6098 14.0516 12.3964C14.1942 12.1831 14.2703 11.9323 14.2703 11.6757C14.2699 11.3317 14.1331 11.0019 13.8899 10.7587C13.6467 10.5155 13.3169 10.3787 12.973 10.3784V10.3784Z" fill="white" />
      <path d="M12.973 12.5405C12.8019 12.5405 12.6347 12.4898 12.4925 12.3948C12.3503 12.2998 12.2394 12.1647 12.1739 12.0066C12.1085 11.8486 12.0914 11.6747 12.1247 11.507C12.1581 11.3392 12.2405 11.1851 12.3614 11.0641C12.4824 10.9432 12.6365 10.8608 12.8042 10.8274C12.972 10.7941 13.1459 10.8112 13.3039 10.8766C13.462 10.9421 13.5971 11.053 13.6921 11.1952C13.7871 11.3374 13.8378 11.5046 13.8378 11.6757C13.8378 11.9051 13.7467 12.125 13.5845 12.2872C13.4223 12.4494 13.2024 12.5405 12.973 12.5405ZM12.973 11.2432C12.8874 11.2432 12.8038 11.2686 12.7327 11.3161C12.6616 11.3636 12.6062 11.4312 12.5735 11.5102C12.5407 11.5892 12.5322 11.6762 12.5489 11.76C12.5655 11.8439 12.6067 11.921 12.6672 11.9815C12.7277 12.0419 12.8047 12.0831 12.8886 12.0998C12.9725 12.1165 13.0594 12.1079 13.1385 12.0752C13.2175 12.0425 13.285 11.987 13.3325 11.9159C13.38 11.8448 13.4054 11.7612 13.4054 11.6757C13.4054 11.561 13.3598 11.451 13.2788 11.3699C13.1977 11.2888 13.0877 11.2432 12.973 11.2432Z" fill="white" />
      <path d="M3.68022 12.5405C3.50916 12.5405 3.34195 12.4898 3.19973 12.3948C3.0575 12.2998 2.94665 12.1647 2.88119 12.0066C2.81573 11.8486 2.7986 11.6747 2.83197 11.507C2.86534 11.3392 2.94771 11.1851 3.06867 11.0641C3.18962 10.9432 3.34372 10.8608 3.51149 10.8274C3.67926 10.7941 3.85315 10.8112 4.01119 10.8766C4.16922 10.9421 4.3043 11.053 4.39933 11.1952C4.49436 11.3374 4.54508 11.5046 4.54508 11.6757C4.54508 11.9051 4.45396 12.125 4.29177 12.2872C4.12958 12.4494 3.9096 12.5405 3.68022 12.5405ZM3.68022 11.2432C3.59469 11.2432 3.51109 11.2686 3.43997 11.3161C3.36886 11.3636 3.31343 11.4312 3.2807 11.5102C3.24797 11.5892 3.23941 11.6762 3.2561 11.76C3.27278 11.8439 3.31397 11.921 3.37444 11.9815C3.43492 12.0419 3.51197 12.0831 3.59586 12.0998C3.67974 12.1165 3.76669 12.1079 3.8457 12.0752C3.92472 12.0425 3.99226 11.987 4.03977 11.9159C4.08729 11.8448 4.11265 11.7612 4.11265 11.6757C4.11265 11.561 4.06709 11.451 3.98599 11.3699C3.9049 11.2888 3.79491 11.2432 3.68022 11.2432Z" fill="white" />
      <path d="M10.3784 9.2973H0.64865C0.591306 9.2973 0.536311 9.27452 0.495762 9.23397C0.455214 9.19342 0.432434 9.13843 0.432434 9.08108C0.432434 9.02374 0.455214 8.96874 0.495762 8.9282C0.536311 8.88765 0.591306 8.86487 0.64865 8.86487H10.3784C10.4357 8.86487 10.4907 8.88765 10.5313 8.9282C10.5718 8.96874 10.5946 9.02374 10.5946 9.08108C10.5946 9.13843 10.5718 9.19342 10.5313 9.23397C10.4907 9.27452 10.4357 9.2973 10.3784 9.2973Z" fill="white" />
    </g>

    <g id="menu-icon">
      <path d="M1.33333 3.33333V4.66666H14.6667V3.33333H1.33333ZM1.33333 7.33333V8.66666H14.6667V7.33333H1.33333ZM1.33333 11.3333V12.6667H14.6667V11.3333H1.33333Z" fill="white" />
    </g>

    <g id="shipping-icon">
      <path d="M14.8119 8.39603H13.6237V6.41583C13.6237 6.35281 13.5987 6.29237 13.5541 6.24781C13.5096 6.20325 13.4491 6.17821 13.3861 6.17821H9.66334V4.19801C9.66334 4.13499 9.63831 4.07455 9.59374 4.02999C9.54918 3.98542 9.48874 3.96039 9.42572 3.96039H1.34651C1.28349 3.96039 1.22305 3.98542 1.17849 4.02999C1.13392 4.07455 1.10889 4.13499 1.10889 4.19801V11.6436C1.10889 11.7066 1.13392 11.767 1.17849 11.8116C1.22305 11.8561 1.28349 11.8812 1.34651 11.8812H3.15562C3.18797 12.1781 3.32883 12.4526 3.55118 12.6521C3.77352 12.8515 4.06169 12.9618 4.36037 12.9618C4.65906 12.9618 4.94722 12.8515 5.16957 12.6521C5.39191 12.4526 5.53278 12.1781 5.56512 11.8812H10.88C10.9123 12.1785 11.0534 12.4534 11.276 12.6531C11.4987 12.8529 11.7872 12.9633 12.0863 12.9633C12.3854 12.9633 12.674 12.8529 12.8966 12.6531C13.1192 12.4534 13.2603 12.1785 13.2927 11.8812H14.8119C14.8749 11.8812 14.9353 11.8561 14.9799 11.8116C15.0244 11.767 15.0495 11.7066 15.0495 11.6436V8.63366C15.0495 8.57063 15.0244 8.51019 14.9799 8.46563C14.9353 8.42107 14.8749 8.39603 14.8119 8.39603V8.39603ZM4.35641 12.4895C4.21021 12.4901 4.06711 12.4473 3.94526 12.3665C3.82341 12.2857 3.72829 12.1705 3.67198 12.0356C3.61567 11.9007 3.60069 11.7521 3.62894 11.6086C3.6572 11.4652 3.72741 11.3333 3.83068 11.2298C3.93396 11.1264 4.06564 11.0559 4.20903 11.0273C4.35242 10.9987 4.50106 11.0134 4.63611 11.0694C4.77116 11.1254 4.88653 11.2203 4.9676 11.342C5.04866 11.4636 5.09177 11.6067 5.09146 11.7529C5.09106 11.9467 5.01441 12.1327 4.87806 12.2705C4.74171 12.4083 4.55661 12.487 4.36275 12.4895H4.35641ZM4.35641 10.5394C4.09629 10.541 3.84355 10.6261 3.63537 10.7821C3.4272 10.9381 3.27458 11.1567 3.19998 11.4059H1.58413V4.43564H9.1881V11.4059H5.52235C5.44781 11.1561 5.29477 10.9369 5.08591 10.7808C4.87706 10.6247 4.62348 10.5401 4.36275 10.5394H4.35641ZM12.0855 12.4895C11.9394 12.4895 11.7967 12.4462 11.6752 12.365C11.5538 12.2838 11.4592 12.1684 11.4033 12.0334C11.3475 11.8984 11.333 11.7499 11.3616 11.6067C11.3902 11.4634 11.4607 11.3319 11.5641 11.2287C11.6675 11.1255 11.7992 11.0554 11.9425 11.0271C12.0858 10.9987 12.2343 11.0136 12.3691 11.0697C12.504 11.1258 12.6192 11.2207 12.7001 11.3423C12.781 11.4639 12.8241 11.6068 12.8237 11.7529C12.8233 11.9484 12.7454 12.1357 12.607 12.2738C12.4686 12.4119 12.281 12.4895 12.0855 12.4895ZM14.5742 11.4059H13.2483C13.1723 11.1578 13.0188 10.9406 12.8102 10.7863C12.6016 10.632 12.349 10.5488 12.0895 10.5488C11.83 10.5488 11.5774 10.632 11.3688 10.7863C11.1602 10.9406 11.0066 11.1578 10.9307 11.4059H9.66334V6.65346H13.1485V8.63366C13.1485 8.69668 13.1735 8.75712 13.2181 8.80168C13.2627 8.84624 13.3231 8.87128 13.3861 8.87128H14.5742V11.4059Z" fill="#FF5500" />
      <path d="M2.61384 6.81185H7.44552L6.65345 7.60393C6.6301 7.62568 6.61137 7.65192 6.59839 7.68107C6.5854 7.71021 6.57841 7.74168 6.57785 7.77359C6.57729 7.80549 6.58316 7.83718 6.59511 7.86677C6.60706 7.89636 6.62485 7.92324 6.64741 7.9458C6.66998 7.96837 6.69686 7.98616 6.72644 7.99811C6.75603 8.01006 6.78773 8.01593 6.81963 8.01537C6.85154 8.0148 6.883 8.00782 6.91215 7.99483C6.9413 7.98184 6.96753 7.96312 6.98929 7.93977L8.05542 6.87363C8.09992 6.82908 8.12492 6.76868 8.12492 6.70571C8.12492 6.64274 8.09992 6.58235 8.05542 6.53779L6.98929 5.47165C6.96682 5.4496 6.94023 5.43219 6.91103 5.42042C6.88184 5.40864 6.85061 5.40273 6.81913 5.40303C6.78765 5.40332 6.75653 5.40981 6.72756 5.42213C6.69859 5.43445 6.67233 5.45235 6.65028 5.47482C6.62823 5.49729 6.61082 5.52388 6.59904 5.55308C6.58727 5.58227 6.58136 5.6135 6.58165 5.64498C6.58194 5.67646 6.58844 5.70758 6.60075 5.73655C6.61307 5.76552 6.63098 5.79178 6.65345 5.81383L7.17622 6.3366H2.61384C2.55082 6.3366 2.49038 6.36164 2.44582 6.4062C2.40126 6.45076 2.37622 6.51121 2.37622 6.57423C2.37622 6.63725 2.40126 6.69769 2.44582 6.74225C2.49038 6.78682 2.55082 6.81185 2.61384 6.81185Z" fill="#FF5500" />
      <path d="M7.76237 9.10891C7.76237 9.04589 7.73733 8.98545 7.69277 8.94089C7.64821 8.89633 7.58777 8.87129 7.52474 8.87129H2.7089L3.48514 8.09664C3.50709 8.07438 3.52444 8.04801 3.5362 8.01905C3.54795 7.99008 3.55389 7.95909 3.55367 7.92783C3.55345 7.89657 3.54708 7.86566 3.53491 7.83686C3.52274 7.80807 3.50502 7.78195 3.48276 7.76C3.4605 7.73806 3.43414 7.72071 3.40518 7.70895C3.37621 7.69719 3.34521 7.69125 3.31396 7.69147C3.2827 7.69169 3.25179 7.69807 3.22299 7.71024C3.1942 7.7224 3.16808 7.74012 3.14613 7.76238L2.07999 8.82852C2.03549 8.87307 2.0105 8.93347 2.0105 8.99644C2.0105 9.05941 2.03549 9.11981 2.07999 9.16436L3.14613 10.2305C3.19088 10.2755 3.25165 10.3008 3.31508 10.3009C3.3785 10.3011 3.43939 10.276 3.48435 10.2313C3.5293 10.1865 3.55464 10.1258 3.55479 10.0623C3.55494 9.99892 3.52989 9.93803 3.48514 9.89307L2.93702 9.34654H7.53108C7.593 9.34489 7.65182 9.31912 7.69502 9.27474C7.73823 9.23035 7.76239 9.17085 7.76237 9.10891V9.10891Z" fill="#FF5500" />
    </g>

    <g id="delivery-icon">
      <path d="M15.17 11.37C15.1147 11.2304 15.0318 11.1035 14.926 10.997C14.8203 10.8904 14.6941 10.8064 14.555 10.75C14.4206 10.6931 14.276 10.6637 14.13 10.6637C13.984 10.6637 13.8394 10.6931 13.705 10.75L10.5225 11.8775C10.5334 11.8139 10.5392 11.7495 10.54 11.685C10.54 11.4012 10.4273 11.1291 10.2266 10.9284C10.0259 10.7277 9.75378 10.615 9.47 10.615H8.645C7.91133 10.6143 7.18882 10.435 6.54 10.0925C5.81972 9.7116 5.01727 9.5125 4.2025 9.5125H2.9525V8.625C2.9525 8.5587 2.92615 8.4951 2.87928 8.44823C2.8324 8.40135 2.7688 8.375 2.7025 8.375H1C0.933695 8.375 0.870108 8.40135 0.823223 8.44823C0.77634 8.4951 0.75 8.5587 0.75 8.625V14.75C0.75 14.8163 0.77634 14.8799 0.823223 14.9268C0.870108 14.9736 0.933695 15 1 15H2.7025C2.7688 15 2.8324 14.9736 2.87928 14.9268C2.92615 14.8799 2.9525 14.8163 2.9525 14.75V14.1875C3.40128 14.2081 3.84487 14.2923 4.27 14.4375L5.555 14.8925C6.21365 15.1242 6.9068 15.2425 7.605 15.2425H7.855C8.60345 15.2086 9.33955 15.0392 10.0275 14.7425L14.635 12.775C14.8826 12.6489 15.0744 12.4353 15.1733 12.1756C15.2721 11.916 15.271 11.6288 15.17 11.37ZM2.4525 14.5H1.25V8.875H2.4525V14.5ZM14.4325 12.33L9.84 14.2925C9.20685 14.5651 8.52883 14.7185 7.84 14.745C7.11793 14.7751 6.39675 14.6673 5.715 14.4275L4.435 13.975C3.95747 13.8075 3.45803 13.7106 2.9525 13.6875V10.0125H4.2025C4.93557 10.0116 5.65762 10.1911 6.305 10.535C7.02642 10.9152 7.8295 11.1143 8.645 11.115H9.47C9.54508 11.115 9.6194 11.1298 9.6887 11.1586C9.75802 11.1874 9.82098 11.2297 9.87395 11.2828C9.9269 11.336 9.96882 11.3992 9.99732 11.4686C10.0258 11.5381 10.0403 11.6124 10.04 11.6875C10.0404 11.7689 10.023 11.8494 9.98885 11.9232C9.9547 11.9971 9.90475 12.0626 9.8425 12.115L9.4225 12.2625H6.695C6.6287 12.2625 6.5651 12.2888 6.51823 12.3357C6.47135 12.3826 6.445 12.4462 6.445 12.5125C6.445 12.5788 6.47135 12.6424 6.51823 12.6893C6.5651 12.7361 6.6287 12.7625 6.695 12.7625H9.47C9.505 12.7625 13.89 11.2225 13.89 11.2225C13.9653 11.1897 14.0466 11.1727 14.1287 11.1727C14.2109 11.1727 14.2922 11.1897 14.3675 11.2225C14.4438 11.2534 14.513 11.2996 14.571 11.358C14.629 11.4164 14.6746 11.486 14.705 11.5625C14.7611 11.702 14.7644 11.8572 14.7142 11.999C14.6641 12.1407 14.5639 12.2594 14.4325 12.3325V12.33Z" fill="#FF5500" />
      <path d="M6.52002 7.97001L10.7025 10.22C10.7387 10.2393 10.779 10.2493 10.82 10.2493C10.861 10.2493 10.9013 10.2393 10.9375 10.22L15.1175 7.97001C15.1574 7.94876 15.1908 7.91706 15.2142 7.87831C15.2375 7.83958 15.2499 7.79523 15.25 7.75001V3.25001C15.2499 3.20478 15.2375 3.16043 15.2142 3.12168C15.1908 3.08296 15.1574 3.05126 15.1175 3.03001L10.9375 0.780004C10.9013 0.760744 10.861 0.750671 10.82 0.750671C10.779 0.750671 10.7387 0.760744 10.7025 0.780004L6.52002 3.03001C6.48054 3.05158 6.44764 3.08343 6.42477 3.12213C6.40189 3.16086 6.38989 3.20503 6.39002 3.25001V7.75001C6.38989 7.79498 6.40189 7.83916 6.42477 7.87786C6.44764 7.91658 6.48054 7.94841 6.52002 7.97001ZM6.89002 3.66751L10.57 5.65001V9.58251L6.89002 7.60001V3.66751ZM8.18752 2.70001L11.7125 4.73501L10.82 5.21501L7.16752 3.25001L8.18752 2.70001ZM9.50002 2L13.0275 4.03501L12.2375 4.46001L8.70502 2.4225L9.50002 2ZM12.5325 4.86251L13.225 4.50001V5.32501L13.04 5.14001C13.0109 5.11118 12.9752 5.08996 12.9359 5.07818C12.8967 5.06641 12.8552 5.06446 12.815 5.07251C12.775 5.08091 12.7377 5.09896 12.7063 5.12511C12.675 5.15126 12.6505 5.18471 12.635 5.22251L12.5325 5.47251V4.86251ZM11.07 9.58251V5.65001L12.0325 5.13251V6.72751C12.0332 6.78488 12.0536 6.84026 12.0902 6.88438C12.1269 6.92851 12.1777 6.95866 12.2339 6.96981C12.2902 6.98096 12.3486 6.97238 12.3994 6.94556C12.4501 6.91876 12.49 6.87528 12.5125 6.82251L12.9525 5.75001L13.3 6.09501C13.3351 6.12941 13.3796 6.15271 13.4278 6.16198C13.4761 6.17126 13.526 6.16611 13.5714 6.14716C13.6167 6.12823 13.6555 6.09633 13.6828 6.05548C13.7101 6.01463 13.7248 5.96666 13.725 5.91751V4.22001L14.75 3.66751V7.60001L11.07 9.58251ZM10.82 1.285L14.4725 3.25001L13.5375 3.75001L10.0125 1.72L10.82 1.285Z" fill="#FF5500" />
    </g>

    <g id="cmr-icon">
      <path d="M15.4841 10.4184C15.7642 10.4157 15.9963 10.0379 15.9963 9.57768C15.9963 9.31164 15.9323 9.13339 15.8555 9.00568L15.9019 8.92853L15.8555 9.00568L14.3446 6.49421L14.4646 6.45164C15.2777 6.1723 15.8219 5.31829 15.8251 3.67678C15.8235 1.76391 14.8631 0.707712 13.9012 0.702391H11.8477V9.301L12.8257 9.06687V2.33857H13.9428C14.423 2.33857 14.8375 2.90791 14.8391 3.66348C14.8423 4.41373 14.5046 4.7995 14.0277 4.99105C13.5427 5.20123 13.3234 5.76525 13.3218 6.37449C13.3218 6.7576 13.4115 7.16465 13.5939 7.50252C13.77 7.86435 13.8708 8.01333 13.874 8.02397L15.2088 10.28C15.2841 10.3625 15.3753 10.4184 15.4841 10.4184ZM10.4841 0.375155C10.0679 0.375155 9.82946 0.864679 9.6454 1.51117L8.48021 5.6402L7.17898 1.95015L5.70969 2.29335V9.57236C5.70969 10.0273 5.94017 10.3971 6.21546 10.3998C6.48755 10.3998 6.71803 10.0273 6.71803 9.57236V3.97742L8.50422 8.94715L10.2376 3.08084V9.67612L11.2459 9.43934V1.64419C11.2459 0.955135 10.8986 0.377815 10.4841 0.375155V0.375155ZM0.00219727 4.87133C0.00699886 7.55041 1.31623 9.72667 2.92637 9.73465C4.00993 9.73465 4.71736 8.78221 5.04387 8.21287L5.06788 8.17562C5.08389 8.1437 5.09669 8.10911 5.11109 8.06122C5.1143 8.05324 5.1191 8.03994 5.1255 8.02397L5.1271 8.01599L5.1303 8.01333L5.15591 8.03196L5.1335 8.00269C5.16871 7.89893 5.18952 7.79251 5.19912 7.6861C5.20232 7.65417 5.20393 7.62491 5.20393 7.59564C5.20393 7.57702 5.20553 7.55839 5.20553 7.54509C5.19912 7.25776 5.11109 6.99438 4.97025 6.83741C4.88382 6.74695 4.78459 6.70173 4.68855 6.70173C4.56851 6.70173 4.45007 6.7709 4.35724 6.90392L4.35404 6.90924C4.34444 6.92787 4.33644 6.94117 4.32523 6.96245C4.29162 7.01832 4.2276 7.12474 4.20519 7.16465C3.85468 7.70472 3.40013 8.00269 2.92477 8.00269C1.88442 8.00003 1.03614 6.59265 1.03614 4.85537C1.03614 3.12341 1.88442 1.71337 2.92477 1.71337C3.27368 1.71869 3.76345 1.82244 4.18279 2.51948L5.20393 2.22683C5.20393 2.22683 4.59572 -0.0318954 2.83514 3.00962e-05C1.2234 0.00269056 0.00699886 2.18959 0.00219727 4.87133ZM5.1303 8.01067C5.1319 8.00535 5.1335 8.00801 5.1335 8.00801L5.1303 8.01067ZM4.17318 14.3186H3.79706C3.75064 14.3186 3.70263 14.3213 3.65461 14.3293C3.60019 14.3372 3.55378 14.3638 3.50736 14.4011C3.46095 14.4437 3.42253 14.4995 3.39212 14.574C3.36331 14.6459 3.34731 14.7549 3.34731 14.88C3.34731 15.0689 3.38732 15.1992 3.46255 15.2711C3.53777 15.3482 3.64021 15.3855 3.76505 15.3855C3.78265 15.3855 3.80986 15.3828 3.84187 15.3801C3.87548 15.3775 3.90909 15.3748 3.94591 15.3642C3.98272 15.3562 4.02113 15.3456 4.06115 15.3323C4.10276 15.3216 4.14117 15.303 4.17478 15.279V14.3186H4.17318ZM4.63894 15.5584C4.63894 15.6622 4.61333 15.734 4.56371 15.7766C4.50769 15.8191 4.44367 15.8537 4.37965 15.8856C4.31083 15.9149 4.24201 15.9388 4.17158 15.9575C4.10116 15.9734 4.02913 15.9867 3.96191 15.992C3.89149 16 3.82427 16.0027 3.76345 16.0027C3.58899 16.0027 3.44654 15.9734 3.3313 15.9149C3.21767 15.8537 3.12644 15.7792 3.06081 15.6781C2.99359 15.577 2.94718 15.4626 2.91997 15.3296C2.89436 15.1966 2.87995 15.0556 2.87995 14.9092C2.87995 14.7523 2.89756 14.6086 2.92637 14.4649C2.95678 14.3213 3.00479 14.1962 3.07362 14.0898C3.14564 13.9834 3.23047 13.8956 3.33931 13.8318C3.44974 13.7652 3.58259 13.7307 3.73784 13.7307H4.17798V13.6216C4.17798 13.5391 4.17318 13.462 4.16358 13.3928C4.15238 13.3209 4.13317 13.2598 4.10436 13.2092C4.07235 13.1613 4.03074 13.1161 3.98112 13.0921C3.9251 13.0629 3.85948 13.0469 3.77465 13.0469C3.68502 13.0469 3.58739 13.0602 3.48335 13.0895C3.37772 13.1108 3.29449 13.1427 3.22727 13.1799C3.19686 13.1906 3.17445 13.1932 3.16485 13.1879C3.15204 13.1773 3.14564 13.1533 3.13764 13.1108L3.08322 12.7383C3.07202 12.6691 3.08322 12.6239 3.11843 12.6026C3.22887 12.5361 3.34891 12.4856 3.47855 12.4563C3.6114 12.427 3.73304 12.4164 3.84988 12.4164C4.12357 12.4164 4.32203 12.5175 4.45007 12.717C4.57652 12.9166 4.64054 13.2119 4.64054 13.5976V15.5584H4.63894V15.5584ZM7.11176 14.3186H6.73403C6.68922 14.3186 6.6412 14.3213 6.58999 14.3293C6.54037 14.3372 6.49075 14.3638 6.44434 14.4011C6.39952 14.4437 6.36271 14.4995 6.3307 14.574C6.30189 14.6459 6.28588 14.7549 6.28588 14.88C6.28588 15.0689 6.3211 15.1992 6.39952 15.2711C6.47475 15.3482 6.57718 15.3855 6.70202 15.3855C6.72123 15.3855 6.74524 15.3828 6.77885 15.3801C6.81086 15.3775 6.84767 15.3748 6.88288 15.3642C6.9213 15.3562 6.95971 15.3456 6.99972 15.3323C7.04294 15.3216 7.07815 15.303 7.11176 15.279V14.3186V14.3186ZM7.57591 15.5584C7.57591 15.6622 7.55191 15.734 7.50069 15.7766C7.44307 15.8191 7.37905 15.8537 7.31503 15.8856C7.2462 15.9149 7.17898 15.9388 7.10696 15.9575C7.03493 15.9734 6.96451 15.9867 6.89409 15.992C6.82686 16 6.75964 16.0027 6.69882 16.0027C6.52116 16.0027 6.38192 15.9734 6.26508 15.9149C6.15144 15.8537 6.05861 15.7792 5.99459 15.6781C5.92737 15.577 5.88095 15.4626 5.85534 15.3296C5.82813 15.1966 5.81373 15.0556 5.81373 14.9092C5.81373 14.7523 5.83133 14.6086 5.86334 14.4649C5.89375 14.3213 5.94177 14.1962 6.00899 14.0898C6.07942 13.9834 6.16584 13.8956 6.27468 13.8318C6.38512 13.7652 6.51796 13.7307 6.67321 13.7307H7.11496V13.6216C7.11496 13.5391 7.11016 13.462 7.09895 13.3928C7.08935 13.3209 7.06854 13.2598 7.03813 13.2092C7.00772 13.1613 6.96451 13.1161 6.91489 13.0921C6.86048 13.0629 6.79485 13.0469 6.71003 13.0469C6.6204 13.0469 6.52276 13.0602 6.41873 13.0895C6.31309 13.1108 6.22827 13.1427 6.16424 13.1799C6.13383 13.1906 6.11303 13.1932 6.10022 13.1879C6.08582 13.1773 6.07942 13.1533 6.07141 13.1108L6.017 12.7383C6.00419 12.6691 6.017 12.6239 6.05061 12.6026C6.16424 12.5361 6.28268 12.4856 6.41393 12.4563C6.54517 12.427 6.66841 12.4164 6.78365 12.4164C7.05734 12.4164 7.25741 12.5175 7.38385 12.717C7.51189 12.9166 7.57591 13.2119 7.57591 13.5976V15.5584V15.5584ZM10.793 13.0443C10.7226 13.0443 10.6601 13.0682 10.6057 13.1134C10.5481 13.1613 10.5017 13.2252 10.4633 13.3023C10.4249 13.3821 10.3912 13.4699 10.3672 13.5684C10.3432 13.6695 10.3304 13.7732 10.3288 13.8823H11.2347C11.2347 13.7652 11.2267 13.6562 11.2139 13.5551C11.1995 13.4566 11.1803 13.3688 11.1451 13.2917C11.1115 13.2145 11.0683 13.1533 11.0139 13.1081C10.9546 13.0682 10.8826 13.0443 10.793 13.0443V13.0443ZM10.7866 12.4111C11.0875 12.4111 11.3132 12.5388 11.4588 12.7968C11.6029 13.0549 11.6749 13.4061 11.6749 13.861C11.6749 13.9754 11.6685 14.0659 11.6525 14.143C11.6365 14.2149 11.6141 14.2734 11.5852 14.3213C11.5564 14.3638 11.5244 14.3958 11.486 14.4091C11.446 14.4277 11.406 14.4383 11.3596 14.4383H10.3144C10.316 14.6113 10.3304 14.7523 10.3608 14.8693C10.3896 14.9837 10.4281 15.0769 10.4777 15.1487C10.5273 15.2205 10.5849 15.2737 10.6505 15.303C10.7162 15.3349 10.7898 15.3482 10.8634 15.3482C10.9482 15.3482 11.0315 15.3323 11.1115 15.2977C11.1931 15.2631 11.2635 15.2205 11.3244 15.1726C11.366 15.1407 11.3948 15.1567 11.4108 15.2125L11.518 15.585C11.534 15.6542 11.526 15.7047 11.4908 15.7393C11.39 15.8404 11.2811 15.9096 11.1611 15.9495C11.0443 15.9867 10.9306 16.0054 10.8218 16.0054C10.5065 16.0054 10.2616 15.8643 10.0951 15.5797C9.92869 15.2977 9.84227 14.8481 9.84227 14.2308C9.84227 13.9435 9.86787 13.6854 9.91429 13.462C9.96071 13.2358 10.0263 13.0469 10.1064 12.8926C10.1912 12.7356 10.2904 12.6159 10.4041 12.5388C10.5225 12.451 10.6505 12.4111 10.7866 12.4111V12.4111ZM15.06 14.3186H14.6823C14.6359 14.3186 14.5894 14.3213 14.5382 14.3293C14.4854 14.3372 14.439 14.3638 14.3926 14.4011C14.3462 14.4437 14.3094 14.4995 14.2773 14.574C14.2485 14.6459 14.2341 14.7549 14.2341 14.88C14.2341 15.0689 14.2709 15.1992 14.3462 15.2711C14.4214 15.3482 14.5254 15.3855 14.6503 15.3855C14.6695 15.3855 14.6951 15.3828 14.7271 15.3801C14.7591 15.3775 14.7943 15.3748 14.8311 15.3642C14.8695 15.3562 14.9079 15.3456 14.9496 15.3323C14.9896 15.3216 15.028 15.303 15.0616 15.279V14.3186H15.06ZM15.5226 15.5584C15.5226 15.6622 15.4985 15.734 15.4473 15.7766C15.3913 15.8191 15.3305 15.8537 15.2617 15.8856C15.1928 15.9149 15.1256 15.9388 15.0552 15.9575C14.9832 15.9734 14.9128 15.9867 14.8439 15.992C14.7735 16 14.7079 16.0027 14.6455 16.0027C14.4726 16.0027 14.3286 15.9734 14.2149 15.9149C14.0997 15.8537 14.0101 15.7792 13.9428 15.6781C13.8772 15.577 13.8308 15.4626 13.8036 15.3296C13.7764 15.1966 13.7636 15.0556 13.7636 14.9092C13.7636 14.7523 13.778 14.6086 13.8084 14.4649C13.8372 14.3213 13.8884 14.1962 13.9572 14.0898C14.0245 13.9834 14.1125 13.8956 14.2229 13.8318C14.3318 13.7652 14.4646 13.7307 14.6215 13.7307H15.0632V13.6216C15.0632 13.5391 15.06 13.462 15.0472 13.3928C15.0376 13.3209 15.0168 13.2598 14.988 13.2092C14.956 13.1613 14.916 13.1161 14.8631 13.0921C14.8103 13.0629 14.7415 13.0469 14.6583 13.0469C14.5702 13.0469 14.471 13.0602 14.3638 13.0895C14.2613 13.1108 14.1749 13.1427 14.1093 13.1799C14.0805 13.1906 14.0597 13.1932 14.0469 13.1879C14.0325 13.1773 14.0245 13.1533 14.0197 13.1108L13.9636 12.7383C13.954 12.6691 13.9636 12.6239 13.9988 12.6026C14.1093 12.5361 14.2293 12.4856 14.3606 12.4563C14.4934 12.427 14.6183 12.4164 14.7319 12.4164C15.004 12.4164 15.204 12.5175 15.3337 12.717C15.4585 12.9166 15.5226 13.2119 15.5226 13.5976V15.5584V15.5584ZM2.95838 11.3708C2.95198 11.3442 2.92797 11.3362 2.89116 11.3362H1.78199C1.65235 11.3362 1.53871 11.3682 1.45068 11.4347C1.36105 11.4985 1.28902 11.5863 1.23621 11.6981C1.18019 11.8071 1.14178 11.9322 1.11937 12.0732C1.09696 12.2115 1.08736 12.3605 1.08736 12.5175V15.7872C1.08736 15.8457 1.09376 15.8856 1.10977 15.9016C1.12577 15.9176 1.14978 15.9255 1.17859 15.9255H1.30183C1.38826 15.9176 1.56592 15.8431 1.56592 15.4174V13.9062H2.74711C2.78232 13.9062 2.80313 13.8929 2.81273 13.8663C2.82233 13.8397 2.82874 13.8052 2.82874 13.7573V13.3848C2.82874 13.3209 2.82233 13.2837 2.81273 13.2677C2.80313 13.2465 2.78232 13.2332 2.74711 13.2332H1.56272V12.4669C1.56272 12.3286 1.58352 12.2195 1.62674 12.1477C1.66515 12.0759 1.73717 12.0386 1.83481 12.0386H2.89116C2.92317 12.0386 2.94718 12.0253 2.95678 12.004C2.96958 11.9827 2.97438 11.9428 2.97438 11.887V11.4799C2.97438 11.4347 2.96958 11.3948 2.95838 11.3708V11.3708ZM9.17484 14.7363C9.14763 14.88 9.11082 14.9997 9.06441 15.0928C9.01639 15.1806 8.95877 15.2498 8.89155 15.2897C8.82433 15.3349 8.7491 15.3509 8.66588 15.3509C8.61466 15.3509 8.55384 15.3482 8.48502 15.3349C8.41779 15.3243 8.35377 15.303 8.28815 15.2684V13.1693C8.37298 13.1267 8.453 13.1001 8.52823 13.0868C8.60826 13.0735 8.66588 13.0655 8.70749 13.0655C8.86594 13.0655 8.98918 13.1613 9.08041 13.3502C9.16844 13.5364 9.21166 13.8264 9.21166 14.2069C9.21166 14.4144 9.19885 14.5926 9.17484 14.7363V14.7363ZM9.6326 13.4699C9.59738 13.2518 9.54137 13.0655 9.47094 12.9086C9.39732 12.7516 9.30609 12.6292 9.19245 12.5414C9.07721 12.4536 8.94277 12.4111 8.78431 12.4111C8.71229 12.4111 8.63386 12.4191 8.54263 12.4403C8.4514 12.4616 8.36818 12.4882 8.29295 12.5281L8.28815 11.2591C8.28815 11.2059 8.28495 11.174 8.27374 11.1607C8.26254 11.1447 8.24333 11.1394 8.21292 11.1394H8.08968C8.00325 11.15 7.8352 11.2245 7.832 11.6316V15.6063C7.832 15.6435 7.8336 15.6755 7.8432 15.7021C7.8512 15.726 7.86721 15.7473 7.89122 15.7606C8.00806 15.851 8.1377 15.9122 8.27695 15.9442C8.41779 15.9841 8.55384 16 8.68988 16C8.86114 16 9.01159 15.9548 9.13963 15.8643C9.26287 15.7739 9.36851 15.6435 9.45014 15.4786C9.53176 15.3163 9.59098 15.1247 9.6294 14.8986C9.66781 14.6751 9.68701 14.433 9.68701 14.1723C9.68541 13.9196 9.66781 13.6854 9.6326 13.4699V13.4699ZM12.6896 15.7739L12.6624 15.4041C12.6592 15.3668 12.6544 15.3482 12.6448 15.3376C12.6352 15.3243 12.6208 15.3216 12.5984 15.3269C12.5808 15.3323 12.5584 15.3349 12.5296 15.3429C12.504 15.3482 12.4783 15.3482 12.4591 15.3482C12.4063 15.3482 12.3711 15.3269 12.3535 15.2844C12.3359 15.2445 12.3263 15.1646 12.3263 15.0529V11.2511C12.3263 11.2032 12.3199 11.1766 12.3087 11.1607C12.2975 11.1447 12.2767 11.1394 12.2479 11.1394H12.1198C12.0334 11.1527 11.8717 11.2245 11.8605 11.6129V15.2312C11.8605 15.5158 11.8957 15.7154 11.963 15.8271C12.0334 15.9442 12.139 15.9974 12.2879 15.9974C12.3391 15.9974 12.3983 15.9894 12.4655 15.9814C12.5328 15.9681 12.5936 15.9495 12.6448 15.9122C12.672 15.891 12.6864 15.8723 12.6928 15.8564C12.6944 15.8457 12.6944 15.8165 12.6896 15.7739V15.7739ZM13.6979 15.7739L13.6707 15.4041C13.6675 15.3668 13.6643 15.3482 13.6547 15.3376C13.6451 15.3243 13.6291 15.3216 13.6083 15.3269C13.5891 15.3323 13.5683 15.3349 13.5379 15.3429C13.5123 15.3482 13.4867 15.3482 13.4675 15.3482C13.4147 15.3482 13.3794 15.3269 13.3602 15.2844C13.341 15.2445 13.3346 15.1646 13.3346 15.0529V11.2511C13.3346 11.2032 13.3266 11.1766 13.3138 11.1607C13.3026 11.1447 13.2818 11.1394 13.253 11.1394H13.1282C13.0385 11.1527 12.8689 11.2272 12.8657 11.6395V15.2338C12.8657 15.5185 12.9009 15.718 12.9681 15.8298C13.0369 15.9468 13.1442 16 13.2914 16C13.3442 16 13.4018 15.992 13.4707 15.9841C13.5363 15.9708 13.5955 15.9521 13.6499 15.9149C13.6755 15.8936 13.6915 15.875 13.6947 15.859C13.7043 15.8457 13.7043 15.8165 13.6979 15.7739V15.7739ZM5.75771 15.7739L5.7321 15.4041C5.7289 15.3668 5.7241 15.3482 5.71449 15.3376C5.70489 15.3243 5.69049 15.3216 5.66808 15.3269C5.65047 15.3323 5.62487 15.3349 5.59926 15.3429C5.57045 15.3482 5.54644 15.3482 5.52563 15.3482C5.47442 15.3482 5.4376 15.3269 5.4216 15.2844C5.40079 15.2445 5.39119 15.1646 5.39119 15.0529V11.2511C5.39119 11.2032 5.38799 11.1766 5.37358 11.1607C5.36078 11.1447 5.34317 11.1394 5.31436 11.1394H5.18632C5.09829 11.1527 4.92863 11.2272 4.92703 11.6475V15.2338C4.92703 15.5185 4.96064 15.718 5.02787 15.8298C5.09829 15.9468 5.20553 16 5.35277 16C5.40559 16 5.46321 15.992 5.53363 15.9841C5.59926 15.9708 5.66008 15.9521 5.71129 15.9149C5.7369 15.8936 5.75131 15.875 5.75611 15.859C5.76251 15.8457 5.76251 15.8165 5.75771 15.7739" fill="#FF5500" />
    </g>

    <g id="plane-icon">
      <path d="M15 10.5V8.5L9.5 5.45V2C9.5 1.15 8.85 0.5 8 0.5C7.15 0.5 6.5 1.15 6.5 2V5.45L1 8.5V10.5L6.5 8.95V12.5L5 13.5V15.5L8 14.5L11 15.5V13.5L9.5 12.5V8.95L15 10.5Z" stroke="#FF5500" stroke-miterlimit="10" stroke-linecap="round" stroke-linejoin="round" />
    </g>

    <g id="refund-icon">
      <path d="M3.78068 2.83798C6.39934 0.691977 10.2693 0.841311 12.714 3.28598C15.3173 5.88931 15.3173 10.1106 12.714 12.714C10.1107 15.3173 5.88934 15.3173 3.28601 12.714C2.4871 11.9162 1.90406 10.9284 1.59165 9.84339C1.27924 8.75841 1.2477 7.61182 1.50001 6.51131L1.55134 6.30264L2.84068 6.64264C2.52104 7.85748 2.64047 9.14616 3.17793 10.2816C3.71538 11.417 4.63637 12.3262 5.77856 12.8491C6.92076 13.372 8.21087 13.4749 9.42151 13.1397C10.6322 12.8045 11.6856 12.0528 12.3963 11.0169C13.107 9.98108 13.4292 8.72763 13.3062 7.47748C13.1832 6.22733 12.6228 5.06072 11.7239 4.18325C10.825 3.30577 9.64522 2.77375 8.39246 2.68095C7.13971 2.58815 5.8944 2.94053 4.87601 3.67598L4.72868 3.78664L5.40668 4.46464L2.34268 5.17131L3.04934 2.10731L3.78001 2.83798H3.78068ZM8.66668 3.99998V5.33331H10.3333V6.66664H6.66668C6.58338 6.66649 6.50304 6.69753 6.44149 6.75365C6.37993 6.80977 6.34162 6.8869 6.33409 6.96986C6.32657 7.05282 6.35037 7.13558 6.40082 7.20187C6.45127 7.26815 6.52471 7.31314 6.60668 7.32798L6.66668 7.33331H9.33334C9.77537 7.33331 10.1993 7.50891 10.5119 7.82147C10.8244 8.13403 11 8.55795 11 8.99998C11 9.44201 10.8244 9.86593 10.5119 10.1785C10.1993 10.491 9.77537 10.6666 9.33334 10.6666H8.66668V12H7.33334V10.6666H5.66668V9.33331H9.33334C9.41664 9.33346 9.49698 9.30243 9.55853 9.24631C9.62009 9.19019 9.6584 9.11305 9.66593 9.0301C9.67345 8.94714 9.64965 8.86437 9.5992 8.79809C9.54875 8.73181 9.47531 8.68682 9.39334 8.67198L9.33334 8.66664H6.66668C6.22465 8.66664 5.80072 8.49105 5.48816 8.17849C5.1756 7.86593 5.00001 7.44201 5.00001 6.99998C5.00001 6.55795 5.1756 6.13403 5.48816 5.82147C5.80072 5.50891 6.22465 5.33331 6.66668 5.33331H7.33334V3.99998H8.66668Z" fill="#FF5500" />
    </g>

  </defs>
</svg>