<svg width="16" height="16" viewBox="0 0 16 16" fill="none" xmlns="http://www.w3.org/2000/svg">
<path d="M15.9333 2.32726C15.8667 2.25454 15.8 2.18179 15.6667 2.18179H3L2.66666 0.290899C2.66666 0.145432 2.46666 5.99081e-09 2.33331 5.99081e-09H0.333313C0.133344 -3.4085e-05 0 0.145432 0 0.363615C0 0.581797 0.133344 0.727263 0.333344 0.727263H2.06669L3.66669 9.60003C3.86669 10.7637 4.86669 11.6364 5.93334 11.6364H13.6C13.8 11.6364 13.9333 11.4909 13.9333 11.2727C13.9333 11.0546 13.8 10.9091 13.6 10.9091H6C5.46666 10.9091 4.93334 10.6182 4.66666 10.1091L14.4 8.65455C14.5333 8.65455 14.6667 8.50908 14.6667 8.36365L16 2.54544C16 2.54544 16 2.39997 15.9333 2.32726ZM14.0667 8L4.33331 9.38181L3.13331 2.83634H15.2L14.0667 8Z" fill="white"/>
<path d="M5.66666 12.3636C4.73334 12.3636 4 13.1637 4 14.1818C4 15.2 4.73334 16 5.66666 16C6.6 16 7.33331 15.2 7.33331 14.1818C7.33334 13.1637 6.6 12.3636 5.66666 12.3636ZM5.66666 15.2727C5.13331 15.2727 4.66666 14.7636 4.66666 14.1818C4.66666 13.6 5.13331 13.0909 5.66666 13.0909C6.2 13.0909 6.66666 13.6 6.66666 14.1818C6.66666 14.7636 6.2 15.2727 5.66666 15.2727Z" fill="white"/>
<path d="M12.3333 12.3636C11.4 12.3636 10.6667 13.1637 10.6667 14.1818C10.6667 15.2 11.4 16 12.3333 16C13.2667 16 14 15.2 14 14.1818C14 13.1637 13.2667 12.3636 12.3333 12.3636ZM12.3333 15.2727C11.8 15.2727 11.3333 14.7636 11.3333 14.1818C11.3333 13.6 11.8 13.0909 12.3333 13.0909C12.8667 13.0909 13.3333 13.6 13.3333 14.1818C13.3333 14.7636 12.8667 15.2727 12.3333 15.2727Z" fill="white"/>
</svg>
