<svg width="16" height="16" viewBox="0 0 16 16" fill="none" xmlns="http://www.w3.org/2000/svg">
    <g clip-path="url(#clip0)">
        <path d="M6.48911 0.0161158C5.12249 0.134909 3.86219 0.62571 2.73637 1.47289C2.41426 1.71673 1.72313 2.4076 1.4792 2.72959C0.209518 4.41145 -0.256449 6.41217 0.143844 8.43477C0.544137 10.448 1.86698 12.2424 3.68081 13.224C6.12948 14.5557 9.08476 14.3338 11.3051 12.6582L11.5553 12.4675L13.2597 14.165C14.1979 15.0997 15.0047 15.8874 15.0516 15.9187C15.1861 16 15.4238 16.0187 15.5864 15.9562C15.7521 15.8937 15.9273 15.7124 15.9804 15.5467C16.0273 15.4029 16.0023 15.1591 15.9304 15.0403C15.8991 14.9934 15.1111 14.1868 14.176 13.249L12.4779 11.5453L12.6686 11.2952C15.3331 7.76578 14.1447 2.72334 10.1793 0.735124C9.07851 0.1818 7.68374 -0.0901724 6.48911 0.0161158ZM7.8401 1.35722C10.6953 1.773 12.7906 4.18011 12.7906 7.04364C12.7906 10.2135 10.2231 12.7801 7.05203 12.7801C4.87856 12.7801 2.91775 11.5734 1.9264 9.6227C1.2165 8.22844 1.1133 6.5841 1.64807 5.10545C2.07964 3.90501 2.93339 2.84526 3.99666 2.18565C4.4939 1.87616 5.10998 1.61044 5.62911 1.47602C6.27646 1.31033 7.18963 1.26031 7.8401 1.35722Z" fill="white" />
    </g>
    <defs>
        <clipPath id="clip0">
            <rect width="16" height="16" fill="white" />
        </clipPath>
    </defs>
</svg>