<svg width="16" height="16" viewBox="0 0 16 16" fill="none" xmlns="http://www.w3.org/2000/svg">
<path d="M10.3784 11.6757H5.17622C5.11887 11.6757 5.06388 11.6529 5.02333 11.6124C4.98278 11.5718 4.96 11.5168 4.96 11.4595C4.96 11.4021 4.98278 11.3471 5.02333 11.3066C5.06388 11.266 5.11887 11.2432 5.17622 11.2432H10.1622V3.02703H0.864867V11.2432H2.18379C2.24113 11.2432 2.29613 11.266 2.33667 11.3066C2.37722 11.3471 2.4 11.4021 2.4 11.4595C2.4 11.5168 2.37722 11.5718 2.33667 11.6124C2.29613 11.6529 2.24113 11.6757 2.18379 11.6757H0.864867C0.750178 11.6757 0.640187 11.6301 0.559091 11.549C0.477994 11.4679 0.432434 11.3579 0.432434 11.2432V3.02703C0.432434 2.91234 0.477994 2.80235 0.559091 2.72125C0.640187 2.64016 0.750178 2.5946 0.864867 2.5946H10.1622C10.2769 2.5946 10.3868 2.64016 10.4679 2.72125C10.549 2.80235 10.5946 2.91234 10.5946 3.02703V11.4595C10.5946 11.5168 10.5718 11.5718 10.5313 11.6124C10.4907 11.6529 10.4357 11.6757 10.3784 11.6757Z" fill="white"/>
<path d="M15.3514 11.6757H14.4692C14.4118 11.6757 14.3568 11.6529 14.3163 11.6123C14.2758 11.5718 14.253 11.5168 14.253 11.4595C14.253 11.4021 14.2758 11.3471 14.3163 11.3066C14.3568 11.266 14.4118 11.2432 14.4692 11.2432H15.1351V7.30033L13.2541 4.97298H10.5946V11.2432H11.4768C11.5341 11.2432 11.5891 11.266 11.6296 11.3066C11.6702 11.3471 11.693 11.4021 11.693 11.4595C11.693 11.5168 11.6702 11.5718 11.6296 11.6123C11.5891 11.6529 11.5341 11.6757 11.4768 11.6757H10.3784C10.321 11.6757 10.266 11.6529 10.2255 11.6123C10.1849 11.5718 10.1622 11.5168 10.1622 11.4595V4.75676C10.1622 4.69941 10.1849 4.64442 10.2255 4.60387C10.266 4.56332 10.321 4.54054 10.3784 4.54054H13.3578C13.3901 4.54055 13.422 4.54778 13.4511 4.56169C13.4802 4.57561 13.5058 4.59587 13.5261 4.62097L15.5196 7.088C15.5506 7.12645 15.5676 7.17437 15.5676 7.22379V11.4595C15.5676 11.5168 15.5448 11.5718 15.5042 11.6123C15.4637 11.6529 15.4087 11.6757 15.3514 11.6757Z" fill="white"/>
<path d="M14.1622 8.43244H11.3514C11.294 8.43244 11.239 8.40966 11.1985 8.36911C11.1579 8.32856 11.1351 8.27357 11.1351 8.21622V5.83784C11.1351 5.7805 11.1579 5.7255 11.1985 5.68496C11.239 5.64441 11.294 5.62163 11.3514 5.62163H12.7334C12.7657 5.62163 12.7975 5.62886 12.8266 5.64278C12.8557 5.6567 12.8814 5.67695 12.9016 5.70206L14.3304 7.47006C14.3615 7.50856 14.3784 7.55657 14.3784 7.60606V8.21622C14.3784 8.27357 14.3556 8.32856 14.3151 8.36911C14.2745 8.40966 14.2195 8.43244 14.1622 8.43244ZM11.5676 8.00001H13.946V7.68238L12.6303 6.05406H11.5676V8.00001Z" fill="white"/>
<path d="M3.68022 13.4054C3.33811 13.4054 3.00369 13.304 2.71923 13.1139C2.43478 12.9238 2.21308 12.6537 2.08216 12.3376C1.95124 12.0215 1.91698 11.6738 1.98373 11.3382C2.05047 11.0027 2.21521 10.6945 2.45712 10.4526C2.69902 10.2107 3.00723 10.0459 3.34277 9.97918C3.6783 9.91244 4.02609 9.9467 4.34216 10.0776C4.65823 10.2085 4.92837 10.4302 5.11844 10.7147C5.3085 10.9991 5.40995 11.3336 5.40995 11.6757C5.40943 12.1343 5.22703 12.5739 4.90275 12.8982C4.57848 13.2225 4.13881 13.4049 3.68022 13.4054V13.4054ZM3.68022 10.3784C3.42364 10.3784 3.17282 10.4545 2.95948 10.597C2.74614 10.7396 2.57986 10.9422 2.48167 11.1792C2.38348 11.4163 2.35779 11.6771 2.40785 11.9288C2.45791 12.1804 2.58146 12.4116 2.76289 12.593C2.94432 12.7744 3.17548 12.898 3.42713 12.948C3.67878 12.9981 3.93962 12.9724 4.17667 12.8742C4.41372 12.776 4.61633 12.6098 4.75888 12.3964C4.90143 12.1831 4.97752 11.9323 4.97752 11.6757C4.97712 11.3317 4.84031 11.002 4.59711 10.7588C4.3539 10.5156 4.02416 10.3788 3.68022 10.3784V10.3784Z" fill="white"/>
<path d="M12.973 13.4054C12.6309 13.4054 12.2964 13.304 12.012 13.1139C11.7275 12.9238 11.5058 12.6537 11.3749 12.3376C11.244 12.0215 11.2097 11.6738 11.2765 11.3382C11.3432 11.0027 11.508 10.6945 11.7499 10.4526C11.9918 10.2107 12.3 10.0459 12.6355 9.97918C12.9711 9.91244 13.3188 9.9467 13.6349 10.0776C13.951 10.2085 14.2211 10.4302 14.4112 10.7147C14.6013 10.9991 14.7027 11.3336 14.7027 11.6757C14.7022 12.1343 14.5198 12.5739 14.1955 12.8982C13.8712 13.2225 13.4316 13.4049 12.973 13.4054V13.4054ZM12.973 10.3784C12.7164 10.3784 12.4656 10.4545 12.2522 10.597C12.0389 10.7396 11.8726 10.9422 11.7744 11.1792C11.6762 11.4163 11.6505 11.6771 11.7006 11.9288C11.7507 12.1804 11.8742 12.4116 12.0556 12.593C12.2371 12.7744 12.4682 12.898 12.7199 12.948C12.9715 12.9981 13.2324 12.9724 13.4694 12.8742C13.7065 12.776 13.9091 12.6098 14.0516 12.3964C14.1942 12.1831 14.2703 11.9323 14.2703 11.6757C14.2699 11.3317 14.1331 11.0019 13.8899 10.7587C13.6467 10.5155 13.3169 10.3787 12.973 10.3784V10.3784Z" fill="white"/>
<path d="M12.973 12.5405C12.8019 12.5405 12.6347 12.4898 12.4925 12.3948C12.3503 12.2998 12.2394 12.1647 12.1739 12.0066C12.1085 11.8486 12.0914 11.6747 12.1247 11.507C12.1581 11.3392 12.2405 11.1851 12.3614 11.0641C12.4824 10.9432 12.6365 10.8608 12.8042 10.8274C12.972 10.7941 13.1459 10.8112 13.3039 10.8766C13.462 10.9421 13.5971 11.053 13.6921 11.1952C13.7871 11.3374 13.8378 11.5046 13.8378 11.6757C13.8378 11.9051 13.7467 12.125 13.5845 12.2872C13.4223 12.4494 13.2024 12.5405 12.973 12.5405ZM12.973 11.2432C12.8874 11.2432 12.8038 11.2686 12.7327 11.3161C12.6616 11.3636 12.6062 11.4312 12.5735 11.5102C12.5407 11.5892 12.5322 11.6762 12.5489 11.76C12.5655 11.8439 12.6067 11.921 12.6672 11.9815C12.7277 12.0419 12.8047 12.0831 12.8886 12.0998C12.9725 12.1165 13.0594 12.1079 13.1385 12.0752C13.2175 12.0425 13.285 11.987 13.3325 11.9159C13.38 11.8448 13.4054 11.7612 13.4054 11.6757C13.4054 11.561 13.3598 11.451 13.2788 11.3699C13.1977 11.2888 13.0877 11.2432 12.973 11.2432Z" fill="white"/>
<path d="M3.68022 12.5405C3.50916 12.5405 3.34195 12.4898 3.19973 12.3948C3.0575 12.2998 2.94665 12.1647 2.88119 12.0066C2.81573 11.8486 2.7986 11.6747 2.83197 11.507C2.86534 11.3392 2.94771 11.1851 3.06867 11.0641C3.18962 10.9432 3.34372 10.8608 3.51149 10.8274C3.67926 10.7941 3.85315 10.8112 4.01119 10.8766C4.16922 10.9421 4.3043 11.053 4.39933 11.1952C4.49436 11.3374 4.54508 11.5046 4.54508 11.6757C4.54508 11.9051 4.45396 12.125 4.29177 12.2872C4.12958 12.4494 3.9096 12.5405 3.68022 12.5405ZM3.68022 11.2432C3.59469 11.2432 3.51109 11.2686 3.43997 11.3161C3.36886 11.3636 3.31343 11.4312 3.2807 11.5102C3.24797 11.5892 3.23941 11.6762 3.2561 11.76C3.27278 11.8439 3.31397 11.921 3.37444 11.9815C3.43492 12.0419 3.51197 12.0831 3.59586 12.0998C3.67974 12.1165 3.76669 12.1079 3.8457 12.0752C3.92472 12.0425 3.99226 11.987 4.03977 11.9159C4.08729 11.8448 4.11265 11.7612 4.11265 11.6757C4.11265 11.561 4.06709 11.451 3.98599 11.3699C3.9049 11.2888 3.79491 11.2432 3.68022 11.2432Z" fill="white"/>
<path d="M10.3784 9.2973H0.64865C0.591306 9.2973 0.536311 9.27452 0.495762 9.23397C0.455214 9.19342 0.432434 9.13843 0.432434 9.08108C0.432434 9.02374 0.455214 8.96874 0.495762 8.9282C0.536311 8.88765 0.591306 8.86487 0.64865 8.86487H10.3784C10.4357 8.86487 10.4907 8.88765 10.5313 8.9282C10.5718 8.96874 10.5946 9.02374 10.5946 9.08108C10.5946 9.13843 10.5718 9.19342 10.5313 9.23397C10.4907 9.27452 10.4357 9.2973 10.3784 9.2973Z" fill="white"/>
</svg>
